<svg xmlns="http://www.w3.org/2000/svg" width="980" height="540" viewBox="0 0 980 540">
<style>text{font-family:Arial, Helvetica, sans-serif}</style>
<rect width="980" height="540" fill="#f7f8fb"/>
<text x="112" y="42" font-size="22" font-weight="700" fill="#20242c">Scenario 06</text>
<text x="112" y="78" font-size="16" font-weight="700" fill="#20242c">Wind speed</text>
<rect x="112" y="92" width="820" height="150" fill="#ffffff" stroke="#d9dde5"/>
<line x1="112" y1="185.1" x2="932" y2="185.1" stroke="#d9dde5" stroke-width="1"/>
<text x="102" y="189.1" text-anchor="end" font-size="12" fill="#626b7a">11.5</text>
<line x1="112" y1="124.7" x2="932" y2="124.7" stroke="#d9dde5" stroke-width="1"/>
<text x="102" y="128.7" text-anchor="end" font-size="12" fill="#626b7a">12.0</text>
<line x1="112.0" y1="92" x2="112.0" y2="242" stroke="#d9dde5" stroke-width="1"/>
<line x1="276.0" y1="92" x2="276.0" y2="242" stroke="#d9dde5" stroke-width="1"/>
<line x1="440.0" y1="92" x2="440.0" y2="242" stroke="#d9dde5" stroke-width="1"/>
<line x1="604.0" y1="92" x2="604.0" y2="242" stroke="#d9dde5" stroke-width="1"/>
<line x1="768.0" y1="92" x2="768.0" y2="242" stroke="#d9dde5" stroke-width="1"/>
<line x1="932.0" y1="92" x2="932.0" y2="242" stroke="#d9dde5" stroke-width="1"/>
<line x1="112" y1="197.2" x2="932" y2="197.2" stroke="#b93636" stroke-width="2" stroke-dasharray="7 5"/>
<text x="924" y="190.2" text-anchor="end" font-size="12" fill="#922828">rated 11.4 m/s</text>
<line x1="112" y1="242" x2="932" y2="242" stroke="#2f3542" stroke-width="1.5"/>
<line x1="112" y1="92" x2="112" y2="242" stroke="#2f3542" stroke-width="1.5"/>
<polyline points="112.0,148.9 115.6,136.8 119.3,136.8 122.9,136.8 126.6,136.8 130.2,136.8 133.9,136.8 137.5,148.9 141.2,148.9 144.8,148.9 148.4,161.0 152.1,161.0 155.7,173.0 159.4,173.0 163.0,185.1 166.7,185.1 170.3,185.1 174.0,185.1 177.6,185.1 181.2,185.1 184.9,185.1 188.5,173.0 192.2,173.0 195.8,161.0 199.5,161.0 203.1,148.9 206.8,148.9 210.4,148.9 214.0,136.8 217.7,136.8 221.3,136.8 225.0,136.8 228.6,136.8 232.3,136.8 235.9,148.9 239.6,148.9 243.2,161.0 246.8,161.0 250.5,173.0 254.1,173.0 257.8,173.0 261.4,185.1 265.1,185.1 268.7,185.1 272.4,185.1 276.0,185.1 279.6,185.1 283.3,173.0 286.9,173.0 290.6,161.0 294.2,161.0 297.9,161.0 301.5,148.9 305.2,148.9 308.8,136.8 312.4,136.8 316.1,136.8 319.7,136.8 323.4,136.8 327.0,136.8 330.7,148.9 334.3,148.9 338.0,161.0 341.6,161.0 345.2,161.0 348.9,173.0 352.5,173.0 356.2,185.1 359.8,185.1 363.5,185.1 367.1,185.1 370.8,185.1 374.4,185.1 378.0,173.0 381.7,173.0 385.3,173.0 389.0,161.0 392.6,161.0 396.3,148.9 399.9,148.9 403.6,148.9 407.2,136.8 410.8,136.8 414.5,136.8 418.1,136.8 421.8,136.8 425.4,148.9 429.1,148.9 432.7,148.9 436.4,161.0 440.0,161.0 443.6,173.0 447.3,173.0 450.9,185.1 454.6,185.1 458.2,185.1 461.9,185.1 465.5,185.1 469.2,185.1 472.8,185.1 476.4,173.0 480.1,173.0 483.7,161.0 487.4,161.0 491.0,148.9 494.7,148.9 498.3,148.9 502.0,136.8 505.6,136.8 509.2,136.8 512.9,136.8 516.5,136.8 520.2,136.8 523.8,148.9 527.5,148.9 531.1,161.0 534.8,161.0 538.4,173.0 542.0,173.0 545.7,173.0 549.3,185.1 553.0,185.1 556.6,185.1 560.3,185.1 563.9,185.1 567.6,185.1 571.2,173.0 574.8,173.0 578.5,173.0 582.1,161.0 585.8,161.0 589.4,148.9 593.1,148.9 596.7,136.8 600.4,136.8 604.0,136.8 607.6,136.8 611.3,136.8 614.9,136.8 618.6,148.9 622.2,148.9 625.9,148.9 629.5,161.0 633.2,161.0 636.8,173.0 640.4,173.0 644.1,185.1 647.7,185.1 651.4,185.1 655.0,185.1 658.7,185.1 662.3,185.1 666.0,173.0 669.6,173.0 673.2,173.0 676.9,161.0 680.5,161.0 684.2,148.9 687.8,148.9 691.5,148.9 695.1,136.8 698.8,136.8 702.4,136.8 706.0,136.8 709.7,136.8 713.3,148.9 717.0,148.9 720.6,148.9 724.3,161.0 727.9,161.0 731.6,173.0 735.2,173.0 738.8,173.0 742.5,185.1 746.1,185.1 749.8,185.1 753.4,185.1 757.1,185.1 760.7,185.1 764.4,173.0 768.0,173.0 771.6,161.0 775.3,161.0 778.9,148.9 782.6,148.9 786.2,148.9 789.9,136.8 793.5,136.8 797.2,136.8 800.8,136.8 804.4,136.8 808.1,136.8 811.7,148.9 815.4,148.9 819.0,161.0 822.7,161.0 826.3,173.0 830.0,173.0 833.6,173.0 837.2,185.1 840.9,185.1 844.5,185.1 848.2,185.1 851.8,185.1 855.5,185.1 859.1,173.0 862.8,173.0 866.4,173.0 870.0,161.0 873.7,161.0 877.3,148.9 881.0,148.9 884.6,136.8 888.3,136.8 891.9,136.8 895.6,136.8 899.2,136.8 902.8,136.8 906.5,148.9 910.1,148.9 913.8,148.9 917.4,161.0 921.1,161.0 924.7,173.0 928.4,173.0 932.0,185.1" fill="none" stroke="#1b6b57" stroke-width="2.6" stroke-linejoin="round" stroke-linecap="round"/>
<text x="48" y="167.0" transform="rotate(-90 48 167.0)" text-anchor="middle" font-size="12" fill="#626b7a">m/s</text>
<text x="112" y="310" font-size="16" font-weight="700" fill="#20242c">Wind direction</text>
<rect x="112" y="324" width="820" height="150" fill="#ffffff" stroke="#d9dde5"/>
<rect x="112" y="439.3" width="820" height="20.2" fill="#f3b0b0" opacity="0.32"/>
<rect x="112" y="392.3" width="820" height="13.4" fill="#f3b0b0" opacity="0.32"/>
<rect x="112" y="338.5" width="820" height="20.2" fill="#f3b0b0" opacity="0.32"/>
<line x1="112" y1="425.9" x2="932" y2="425.9" stroke="#d9dde5" stroke-width="1"/>
<text x="102" y="429.9" text-anchor="end" font-size="12" fill="#626b7a">250</text>
<line x1="112" y1="358.7" x2="932" y2="358.7" stroke="#d9dde5" stroke-width="1"/>
<text x="102" y="362.7" text-anchor="end" font-size="12" fill="#626b7a">300</text>
<line x1="112.0" y1="324" x2="112.0" y2="474" stroke="#d9dde5" stroke-width="1"/>
<text x="112.0" y="494" text-anchor="middle" font-size="12" fill="#626b7a">0</text>
<line x1="276.0" y1="324" x2="276.0" y2="474" stroke="#d9dde5" stroke-width="1"/>
<text x="276.0" y="494" text-anchor="middle" font-size="12" fill="#626b7a">3</text>
<line x1="440.0" y1="324" x2="440.0" y2="474" stroke="#d9dde5" stroke-width="1"/>
<text x="440.0" y="494" text-anchor="middle" font-size="12" fill="#626b7a">6</text>
<line x1="604.0" y1="324" x2="604.0" y2="474" stroke="#d9dde5" stroke-width="1"/>
<text x="604.0" y="494" text-anchor="middle" font-size="12" fill="#626b7a">9</text>
<line x1="768.0" y1="324" x2="768.0" y2="474" stroke="#d9dde5" stroke-width="1"/>
<text x="768.0" y="494" text-anchor="middle" font-size="12" fill="#626b7a">12</text>
<line x1="932.0" y1="324" x2="932.0" y2="474" stroke="#d9dde5" stroke-width="1"/>
<text x="932.0" y="494" text-anchor="middle" font-size="12" fill="#626b7a">15</text>
<line x1="112" y1="474" x2="932" y2="474" stroke="#2f3542" stroke-width="1.5"/>
<line x1="112" y1="324" x2="112" y2="474" stroke="#2f3542" stroke-width="1.5"/>
<polyline points="112.0,433.0 115.6,432.9 119.3,433.1 122.9,433.8 126.6,434.9 130.2,436.1 133.9,437.6 137.5,438.9 141.2,440.1 144.8,441.1 148.4,441.5 152.1,441.6 155.7,441.1 159.4,440.3 163.0,439.2 166.7,437.8 170.3,436.4 174.0,435.2 177.6,433.9 181.2,433.3 184.9,432.9 188.5,433.0 192.2,433.5 195.8,434.5 199.5,435.7 203.1,437.0 206.8,438.4 210.4,439.7 214.0,440.7 217.7,441.3 221.3,441.6 225.0,441.3 228.6,440.7 232.3,439.6 235.9,438.4 239.6,436.9 243.2,435.6 246.8,434.3 250.5,433.4 254.1,433.0 257.8,432.9 261.4,433.3 265.1,434.1 268.7,435.2 272.4,436.5 276.0,438.0 279.6,439.3 283.3,440.4 286.9,441.2 290.6,441.6 294.2,441.5 297.9,440.9 301.5,440.0 305.2,438.8 308.8,437.4 312.4,436.1 316.1,434.8 319.7,433.8 323.4,433.1 327.0,432.9 330.7,433.0 334.3,433.7 338.0,434.8 341.6,436.0 345.2,437.4 348.9,438.8 352.5,440.0 356.2,440.9 359.8,441.5 363.5,441.6 367.1,441.2 370.8,440.4 374.4,439.3 378.0,438.0 381.7,436.6 385.3,435.3 389.0,434.1 392.6,433.3 396.3,432.9 399.9,432.9 403.6,433.4 407.2,434.3 410.8,435.6 414.5,436.9 418.1,438.2 421.8,439.6 425.4,440.7 429.1,441.3 432.7,441.6 436.4,441.3 440.0,440.8 443.6,439.7 447.3,438.5 450.9,437.0 454.6,435.7 458.2,434.5 461.9,433.5 465.5,433.0 469.2,432.9 472.8,433.1 476.4,433.9 480.1,435.0 483.7,436.1 487.4,436.2 491.0,436.5 494.7,436.4 498.3,436.1 502.0,435.3 505.6,434.1 509.2,432.3 512.9,430.3 516.5,427.9 520.2,425.3 523.8,422.8 527.5,420.2 531.1,418.0 534.8,416.1 538.4,414.6 542.0,413.7 545.7,413.0 549.3,412.8 553.0,412.8 556.6,413.1 560.3,413.2 563.9,413.2 567.6,413.1 571.2,412.4 574.8,411.4 578.5,409.9 582.1,408.0 585.8,405.7 589.4,403.2 593.1,400.6 596.7,398.1 600.4,395.6 604.0,393.6 607.6,392.0 611.3,390.8 614.9,390.0 618.6,389.7 622.2,389.7 625.9,389.9 629.5,390.7 633.2,392.0 636.8,393.1 640.4,393.8 644.1,394.0 647.7,393.9 651.4,393.4 655.0,392.4 658.7,391.1 662.3,389.7 666.0,388.4 669.6,387.0 673.2,386.1 676.9,385.6 680.5,385.3 684.2,385.7 687.8,386.4 691.5,387.4 695.1,388.8 698.8,390.1 702.4,391.5 706.0,392.7 709.7,393.5 713.3,394.0 717.0,394.0 720.6,393.6 724.3,392.7 727.9,391.6 731.6,390.3 735.2,388.8 738.8,387.4 742.5,386.4 746.1,385.7 749.8,385.3 753.4,385.4 757.1,386.1 760.7,387.0 764.4,388.2 768.0,389.6 771.6,391.1 775.3,392.3 778.9,393.2 782.6,393.9 786.2,394.0 789.9,393.8 793.5,393.1 797.2,392.0 800.8,390.8 804.4,389.3 808.1,388.0 811.7,386.8 815.4,386.0 819.0,385.4 822.7,385.4 826.3,385.8 830.0,386.6 833.6,387.7 837.2,389.1 840.9,390.5 844.5,391.9 848.2,393.0 851.8,393.8 855.5,394.0 859.1,393.9 862.8,393.4 866.4,392.4 870.0,391.2 873.7,389.9 877.3,388.5 881.0,387.2 884.6,386.2 888.3,385.6 891.9,385.3 895.6,385.6 899.2,386.2 902.8,387.3 906.5,388.5 910.1,390.0 913.8,391.3 917.4,392.5 921.1,393.5 924.7,394.0 928.4,394.0 932.0,393.6" fill="none" stroke="#5a4fcf" stroke-width="2.6" stroke-linejoin="round" stroke-linecap="round"/>
<text x="48" y="399.0" transform="rotate(-90 48 399.0)" text-anchor="middle" font-size="12" fill="#626b7a">deg</text>
<rect x="752" y="292" width="18" height="10" fill="#f3b0b0" opacity="0.45"/>
<text x="778" y="302" font-size="12" fill="#626b7a">wake-overlap directions</text>
<text x="522.0" y="514" text-anchor="middle" font-size="13" fill="#626b7a">Time (min)</text>
</svg>