<svg xmlns="http://www.w3.org/2000/svg" width="980" height="540" viewBox="0 0 980 540">
<style>text{font-family:Arial, Helvetica, sans-serif}</style>
<rect width="980" height="540" fill="#f7f8fb"/>
<text x="112" y="42" font-size="22" font-weight="700" fill="#20242c">Scenario 05</text>
<text x="112" y="78" font-size="16" font-weight="700" fill="#20242c">Wind speed</text>
<rect x="112" y="92" width="820" height="150" fill="#ffffff" stroke="#d9dde5"/>
<line x1="112" y1="220.8" x2="932" y2="220.8" stroke="#d9dde5" stroke-width="1"/>
<text x="102" y="224.8" text-anchor="end" font-size="12" fill="#626b7a">8.00</text>
<line x1="112" y1="187.2" x2="932" y2="187.2" stroke="#d9dde5" stroke-width="1"/>
<text x="102" y="191.2" text-anchor="end" font-size="12" fill="#626b7a">9.00</text>
<line x1="112" y1="153.6" x2="932" y2="153.6" stroke="#d9dde5" stroke-width="1"/>
<text x="102" y="157.6" text-anchor="end" font-size="12" fill="#626b7a">10.0</text>
<line x1="112" y1="120.0" x2="932" y2="120.0" stroke="#d9dde5" stroke-width="1"/>
<text x="102" y="124.0" text-anchor="end" font-size="12" fill="#626b7a">11.0</text>
<line x1="112.0" y1="92" x2="112.0" y2="242" stroke="#d9dde5" stroke-width="1"/>
<line x1="276.0" y1="92" x2="276.0" y2="242" stroke="#d9dde5" stroke-width="1"/>
<line x1="440.0" y1="92" x2="440.0" y2="242" stroke="#d9dde5" stroke-width="1"/>
<line x1="604.0" y1="92" x2="604.0" y2="242" stroke="#d9dde5" stroke-width="1"/>
<line x1="768.0" y1="92" x2="768.0" y2="242" stroke="#d9dde5" stroke-width="1"/>
<line x1="932.0" y1="92" x2="932.0" y2="242" stroke="#d9dde5" stroke-width="1"/>
<line x1="112" y1="106.5" x2="932" y2="106.5" stroke="#b93636" stroke-width="2" stroke-dasharray="7 5"/>
<text x="924" y="99.5" text-anchor="end" font-size="12" fill="#922828">rated 11.4 m/s</text>
<line x1="112" y1="242" x2="932" y2="242" stroke="#2f3542" stroke-width="1.5"/>
<line x1="112" y1="92" x2="112" y2="242" stroke="#2f3542" stroke-width="1.5"/>
<polyline points="112.0,190.5 115.6,183.8 119.3,180.4 122.9,177.1 126.6,177.1 130.2,180.4 133.9,180.4 137.5,187.2 141.2,190.5 144.8,197.2 148.4,200.6 152.1,207.3 155.7,214.0 159.4,217.4 163.0,217.4 166.7,217.4 170.3,217.4 174.0,214.0 177.6,210.7 181.2,204.0 184.9,200.6 188.5,193.9 192.2,187.2 195.8,183.8 199.5,180.4 203.1,177.1 206.8,177.1 210.4,180.4 214.0,183.8 217.7,187.2 221.3,190.5 225.0,197.2 228.6,204.0 232.3,207.3 235.9,214.0 239.6,217.4 243.2,217.4 246.8,217.4 250.5,217.4 254.1,214.0 257.8,210.7 261.4,204.0 265.1,200.6 268.7,193.9 272.4,187.2 276.0,183.8 279.6,180.4 283.3,177.1 286.9,177.1 290.6,180.4 294.2,183.8 297.9,187.2 301.5,190.5 305.2,197.2 308.8,204.0 312.4,207.3 316.1,214.0 319.7,217.4 323.4,217.4 327.0,217.4 330.7,217.4 334.3,214.0 338.0,210.7 341.6,204.0 345.2,197.2 348.9,193.9 352.5,187.2 356.2,183.8 359.8,180.4 363.5,177.1 367.1,177.1 370.8,180.4 374.4,183.8 378.0,187.2 381.7,193.9 385.3,197.2 389.0,204.0 392.6,210.7 396.3,214.0 399.9,217.4 403.6,217.4 407.2,217.4 410.8,217.4 414.5,214.0 418.1,207.3 421.8,204.0 425.4,197.2 429.1,190.5 432.7,187.2 436.4,183.8 440.0,180.4 443.6,177.1 447.3,177.1 450.9,180.4 454.6,183.8 458.2,187.2 461.9,193.9 465.5,200.6 469.2,204.0 472.8,210.7 476.4,214.0 480.1,217.4 483.7,217.4 487.4,217.4 491.0,217.4 494.7,214.0 498.3,207.3 502.0,204.0 505.6,197.2 509.2,190.5 512.9,187.2 516.5,183.8 520.2,180.4 523.8,180.4 527.5,180.4 531.1,183.8 534.8,187.2 538.4,190.5 542.0,197.2 545.7,204.0 549.3,207.3 553.0,214.0 556.6,217.4 560.3,220.8 563.9,220.8 567.6,220.8 571.2,220.8 574.8,217.4 578.5,210.7 582.1,207.3 585.8,200.6 589.4,193.9 593.1,190.5 596.7,187.2 600.4,183.8 604.0,183.8 607.6,183.8 611.3,187.2 614.9,190.5 618.6,193.9 622.2,200.6 625.9,207.3 629.5,210.7 633.2,217.4 636.8,220.8 640.4,224.1 644.1,224.1 647.7,224.1 651.4,224.1 655.0,217.4 658.7,214.0 662.3,207.3 666.0,204.0 669.6,197.2 673.2,193.9 676.9,190.5 680.5,187.2 684.2,187.2 687.8,187.2 691.5,190.5 695.1,193.9 698.8,200.6 702.4,204.0 706.0,210.7 709.7,217.4 713.3,220.8 717.0,224.1 720.6,227.5 724.3,227.5 727.9,227.5 731.6,224.1 735.2,220.8 738.8,214.0 742.5,210.7 746.1,204.0 749.8,197.2 753.4,193.9 757.1,190.5 760.7,187.2 764.4,187.2 768.0,187.2 771.6,190.5 775.3,193.9 778.9,200.6 782.6,204.0 786.2,210.7 789.9,217.4 793.5,220.8 797.2,224.1 800.8,227.5 804.4,227.5 808.1,227.5 811.7,224.1 815.4,220.8 819.0,214.0 822.7,210.7 826.3,204.0 830.0,197.2 833.6,193.9 837.2,190.5 840.9,187.2 844.5,187.2 848.2,187.2 851.8,190.5 855.5,193.9 859.1,200.6 862.8,207.3 866.4,210.7 870.0,217.4 873.7,220.8 877.3,224.1 881.0,227.5 884.6,227.5 888.3,227.5 891.9,224.1 895.6,220.8 899.2,214.0 902.8,207.3 906.5,204.0 910.1,197.2 913.8,193.9 917.4,190.5 921.1,187.2 924.7,187.2 928.4,190.5 932.0,190.5" fill="none" stroke="#1b6b57" stroke-width="2.6" stroke-linejoin="round" stroke-linecap="round"/>
<text x="48" y="167.0" transform="rotate(-90 48 167.0)" text-anchor="middle" font-size="12" fill="#626b7a">m/s</text>
<text x="112" y="310" font-size="16" font-weight="700" fill="#20242c">Wind direction</text>
<rect x="112" y="324" width="820" height="150" fill="#ffffff" stroke="#d9dde5"/>
<rect x="112" y="439.3" width="820" height="20.2" fill="#f3b0b0" opacity="0.32"/>
<rect x="112" y="392.3" width="820" height="13.4" fill="#f3b0b0" opacity="0.32"/>
<rect x="112" y="338.5" width="820" height="20.2" fill="#f3b0b0" opacity="0.32"/>
<line x1="112" y1="425.9" x2="932" y2="425.9" stroke="#d9dde5" stroke-width="1"/>
<text x="102" y="429.9" text-anchor="end" font-size="12" fill="#626b7a">250</text>
<line x1="112" y1="358.7" x2="932" y2="358.7" stroke="#d9dde5" stroke-width="1"/>
<text x="102" y="362.7" text-anchor="end" font-size="12" fill="#626b7a">300</text>
<line x1="112.0" y1="324" x2="112.0" y2="474" stroke="#d9dde5" stroke-width="1"/>
<text x="112.0" y="494" text-anchor="middle" font-size="12" fill="#626b7a">0</text>
<line x1="276.0" y1="324" x2="276.0" y2="474" stroke="#d9dde5" stroke-width="1"/>
<text x="276.0" y="494" text-anchor="middle" font-size="12" fill="#626b7a">3</text>
<line x1="440.0" y1="324" x2="440.0" y2="474" stroke="#d9dde5" stroke-width="1"/>
<text x="440.0" y="494" text-anchor="middle" font-size="12" fill="#626b7a">6</text>
<line x1="604.0" y1="324" x2="604.0" y2="474" stroke="#d9dde5" stroke-width="1"/>
<text x="604.0" y="494" text-anchor="middle" font-size="12" fill="#626b7a">9</text>
<line x1="768.0" y1="324" x2="768.0" y2="474" stroke="#d9dde5" stroke-width="1"/>
<text x="768.0" y="494" text-anchor="middle" font-size="12" fill="#626b7a">12</text>
<line x1="932.0" y1="324" x2="932.0" y2="474" stroke="#d9dde5" stroke-width="1"/>
<text x="932.0" y="494" text-anchor="middle" font-size="12" fill="#626b7a">15</text>
<line x1="112" y1="474" x2="932" y2="474" stroke="#2f3542" stroke-width="1.5"/>
<line x1="112" y1="324" x2="112" y2="474" stroke="#2f3542" stroke-width="1.5"/>
<polyline points="112.0,413.9 115.6,414.5 119.3,415.0 122.9,415.7 126.6,416.3 130.2,417.0 133.9,417.7 137.5,418.4 141.2,419.0 144.8,419.6 148.4,420.1 152.1,420.6 155.7,421.0 159.4,421.3 163.0,421.6 166.7,421.7 170.3,421.7 174.0,421.6 177.6,421.4 181.2,421.2 184.9,420.8 188.5,420.2 192.2,419.8 195.8,419.2 199.5,418.6 203.1,418.0 206.8,417.3 210.4,416.5 214.0,415.9 217.7,415.3 221.3,414.6 225.0,414.1 228.6,413.7 232.3,413.2 235.9,413.0 239.6,412.7 243.2,412.6 246.8,412.6 250.5,412.7 254.1,412.8 257.8,413.2 261.4,413.5 265.1,414.1 268.7,414.6 272.4,415.1 276.0,415.8 279.6,416.5 283.3,417.1 286.9,417.8 290.6,418.5 294.2,419.2 297.9,419.7 301.5,420.2 305.2,420.6 308.8,421.0 312.4,421.4 316.1,421.6 319.7,421.7 323.4,421.7 327.0,421.6 330.7,421.3 334.3,421.0 338.0,420.6 341.6,420.2 345.2,419.7 348.9,419.0 352.5,418.5 356.2,417.8 359.8,417.1 363.5,416.5 367.1,415.8 370.8,415.1 374.4,414.6 378.0,414.1 381.7,413.5 385.3,413.1 389.0,412.8 392.6,412.7 396.3,412.6 399.9,412.6 403.6,412.7 407.2,413.0 410.8,413.2 414.5,413.7 418.1,414.2 421.8,414.7 425.4,415.3 429.1,415.9 432.7,416.6 436.4,417.3 440.0,418.0 443.6,418.6 447.3,419.3 450.9,419.8 454.6,420.4 458.2,420.8 461.9,421.2 465.5,421.4 469.2,421.6 472.8,421.7 476.4,421.7 480.1,421.6 483.7,421.3 487.4,421.0 491.0,420.6 494.7,420.1 498.3,419.6 502.0,418.9 505.6,418.4 509.2,417.7 512.9,417.0 516.5,416.3 520.2,415.7 523.8,415.0 527.5,414.5 531.1,413.9 534.8,413.5 538.4,413.1 542.0,412.8 545.7,412.7 549.3,412.6 553.0,412.6 556.6,412.7 560.3,413.0 563.9,413.4 567.6,413.8 571.2,414.2 574.8,414.7 578.5,415.4 582.1,416.1 585.8,416.7 589.4,417.4 593.1,418.1 596.7,418.8 600.4,419.3 604.0,420.0 607.6,420.4 611.3,420.9 614.9,421.2 618.6,421.4 622.2,421.6 625.9,421.7 629.5,421.6 633.2,421.4 636.8,421.3 640.4,420.9 644.1,420.5 647.7,420.0 651.4,419.4 655.0,418.9 658.7,418.2 662.3,417.5 666.0,416.9 669.6,416.2 673.2,415.5 676.9,414.9 680.5,414.3 684.2,413.8 687.8,413.4 691.5,413.1 695.1,412.8 698.8,412.7 702.4,412.6 706.0,412.7 709.7,412.8 713.3,413.1 717.0,413.4 720.6,413.8 724.3,414.3 727.9,414.9 731.6,415.5 735.2,416.2 738.8,416.9 742.5,417.5 746.1,418.2 749.8,418.9 753.4,419.4 757.1,420.0 760.7,420.5 764.4,420.9 768.0,421.3 771.6,421.4 775.3,421.6 778.9,421.7 782.6,421.6 786.2,421.4 789.9,421.2 793.5,420.9 797.2,420.4 800.8,420.0 804.4,419.3 808.1,418.8 811.7,418.1 815.4,417.4 819.0,416.7 822.7,416.1 826.3,415.4 830.0,414.7 833.6,414.2 837.2,413.8 840.9,413.4 844.5,413.0 848.2,412.7 851.8,412.6 855.5,412.6 859.1,412.7 862.8,412.8 866.4,413.1 870.0,413.5 873.7,413.9 877.3,414.5 881.0,415.0 884.6,415.7 888.3,416.3 891.9,417.0 895.6,417.7 899.2,418.4 902.8,419.0 906.5,419.6 910.1,420.1 913.8,420.6 917.4,421.0 921.1,421.3 924.7,421.6 928.4,421.7 932.0,421.7" fill="none" stroke="#5a4fcf" stroke-width="2.6" stroke-linejoin="round" stroke-linecap="round"/>
<text x="48" y="399.0" transform="rotate(-90 48 399.0)" text-anchor="middle" font-size="12" fill="#626b7a">deg</text>
<rect x="752" y="292" width="18" height="10" fill="#f3b0b0" opacity="0.45"/>
<text x="778" y="302" font-size="12" fill="#626b7a">wake-overlap directions</text>
<text x="522.0" y="514" text-anchor="middle" font-size="13" fill="#626b7a">Time (min)</text>
</svg>