<svg xmlns="http://www.w3.org/2000/svg" width="980" height="540" viewBox="0 0 980 540">
<style>text{font-family:Arial, Helvetica, sans-serif}</style>
<rect width="980" height="540" fill="#f7f8fb"/>
<text x="112" y="42" font-size="22" font-weight="700" fill="#20242c">Scenario 03</text>
<text x="112" y="78" font-size="16" font-weight="700" fill="#20242c">Wind speed</text>
<rect x="112" y="92" width="820" height="150" fill="#ffffff" stroke="#d9dde5"/>
<line x1="112" y1="212.4" x2="932" y2="212.4" stroke="#d9dde5" stroke-width="1"/>
<text x="102" y="216.4" text-anchor="end" font-size="12" fill="#626b7a">11.5</text>
<line x1="112" y1="174.6" x2="932" y2="174.6" stroke="#d9dde5" stroke-width="1"/>
<text x="102" y="178.6" text-anchor="end" font-size="12" fill="#626b7a">12.0</text>
<line x1="112" y1="136.8" x2="932" y2="136.8" stroke="#d9dde5" stroke-width="1"/>
<text x="102" y="140.8" text-anchor="end" font-size="12" fill="#626b7a">12.5</text>
<line x1="112" y1="99.0" x2="932" y2="99.0" stroke="#d9dde5" stroke-width="1"/>
<text x="102" y="103.0" text-anchor="end" font-size="12" fill="#626b7a">13.0</text>
<line x1="112.0" y1="92" x2="112.0" y2="242" stroke="#d9dde5" stroke-width="1"/>
<line x1="276.0" y1="92" x2="276.0" y2="242" stroke="#d9dde5" stroke-width="1"/>
<line x1="440.0" y1="92" x2="440.0" y2="242" stroke="#d9dde5" stroke-width="1"/>
<line x1="604.0" y1="92" x2="604.0" y2="242" stroke="#d9dde5" stroke-width="1"/>
<line x1="768.0" y1="92" x2="768.0" y2="242" stroke="#d9dde5" stroke-width="1"/>
<line x1="932.0" y1="92" x2="932.0" y2="242" stroke="#d9dde5" stroke-width="1"/>
<line x1="112" y1="219.9" x2="932" y2="219.9" stroke="#b93636" stroke-width="2" stroke-dasharray="7 5"/>
<text x="924" y="212.9" text-anchor="end" font-size="12" fill="#922828">rated 11.4 m/s</text>
<line x1="112" y1="242" x2="932" y2="242" stroke="#2f3542" stroke-width="1.5"/>
<line x1="112" y1="92" x2="112" y2="242" stroke="#2f3542" stroke-width="1.5"/>
<polyline points="112.0,136.8 115.6,129.2 119.3,121.6 122.9,121.6 126.6,114.1 130.2,114.1 133.9,114.1 137.5,114.1 141.2,114.1 144.8,121.6 148.4,121.6 152.1,129.2 155.7,136.8 159.4,144.3 163.0,144.3 166.7,151.9 170.3,159.4 174.0,167.0 177.6,174.6 181.2,182.1 184.9,189.7 188.5,197.2 192.2,204.8 195.8,212.4 199.5,212.4 203.1,219.9 206.8,219.9 210.4,227.5 214.0,227.5 217.7,227.5 221.3,219.9 225.0,219.9 228.6,219.9 232.3,212.4 235.9,204.8 239.6,197.2 243.2,189.7 246.8,189.7 250.5,182.1 254.1,174.6 257.8,167.0 261.4,159.4 265.1,151.9 268.7,144.3 272.4,136.8 276.0,129.2 279.6,121.6 283.3,121.6 286.9,121.6 290.6,114.1 294.2,114.1 297.9,114.1 301.5,114.1 305.2,121.6 308.8,121.6 312.4,129.2 316.1,136.8 319.7,136.8 323.4,144.3 327.0,151.9 330.7,159.4 334.3,167.0 338.0,174.6 341.6,182.1 345.2,189.7 348.9,197.2 352.5,204.8 356.2,212.4 359.8,212.4 363.5,219.9 367.1,219.9 370.8,219.9 374.4,227.5 378.0,227.5 381.7,219.9 385.3,219.9 389.0,219.9 392.6,212.4 396.3,204.8 399.9,204.8 403.6,197.2 407.2,189.7 410.8,182.1 414.5,174.6 418.1,167.0 421.8,159.4 425.4,151.9 429.1,144.3 432.7,136.8 436.4,129.2 440.0,129.2 443.6,121.6 447.3,121.6 450.9,114.1 454.6,114.1 458.2,114.1 461.9,114.1 465.5,121.6 469.2,121.6 472.8,129.2 476.4,129.2 480.1,136.8 483.7,144.3 487.4,151.9 491.0,159.4 494.7,167.0 498.3,174.6 502.0,182.1 505.6,189.7 509.2,197.2 512.9,197.2 516.5,204.8 520.2,212.4 523.8,212.4 527.5,219.9 531.1,219.9 534.8,219.9 538.4,219.9 542.0,219.9 545.7,219.9 549.3,212.4 553.0,212.4 556.6,204.8 560.3,197.2 563.9,189.7 567.6,182.1 571.2,174.6 574.8,167.0 578.5,159.4 582.1,151.9 585.8,144.3 589.4,136.8 593.1,136.8 596.7,129.2 600.4,121.6 604.0,121.6 607.6,114.1 611.3,114.1 614.9,114.1 618.6,114.1 622.2,114.1 625.9,114.1 629.5,114.1 633.2,121.6 636.8,121.6 640.4,129.2 644.1,136.8 647.7,144.3 651.4,151.9 655.0,159.4 658.7,167.0 662.3,174.6 666.0,182.1 669.6,189.7 673.2,197.2 676.9,197.2 680.5,204.8 684.2,212.4 687.8,212.4 691.5,212.4 695.1,219.9 698.8,219.9 702.4,212.4 706.0,212.4 709.7,212.4 713.3,204.8 717.0,204.8 720.6,197.2 724.3,189.7 727.9,182.1 731.6,174.6 735.2,167.0 738.8,159.4 742.5,151.9 746.1,144.3 749.8,136.8 753.4,129.2 757.1,121.6 760.7,121.6 764.4,114.1 768.0,114.1 771.6,106.5 775.3,106.5 778.9,106.5 782.6,106.5 786.2,106.5 789.9,114.1 793.5,114.1 797.2,121.6 800.8,121.6 804.4,129.2 808.1,136.8 811.7,144.3 815.4,151.9 819.0,159.4 822.7,167.0 826.3,174.6 830.0,182.1 833.6,189.7 837.2,197.2 840.9,204.8 844.5,204.8 848.2,212.4 851.8,212.4 855.5,212.4 859.1,212.4 862.8,212.4 866.4,212.4 870.0,212.4 873.7,204.8 877.3,197.2 881.0,197.2 884.6,189.7 888.3,182.1 891.9,174.6 895.6,167.0 899.2,159.4 902.8,151.9 906.5,144.3 910.1,136.8 913.8,129.2 917.4,121.6 921.1,121.6 924.7,114.1 928.4,114.1 932.0,106.5" fill="none" stroke="#1b6b57" stroke-width="2.6" stroke-linejoin="round" stroke-linecap="round"/>
<text x="48" y="167.0" transform="rotate(-90 48 167.0)" text-anchor="middle" font-size="12" fill="#626b7a">m/s</text>
<text x="112" y="310" font-size="16" font-weight="700" fill="#20242c">Wind direction</text>
<rect x="112" y="324" width="820" height="150" fill="#ffffff" stroke="#d9dde5"/>
<rect x="112" y="439.3" width="820" height="20.2" fill="#f3b0b0" opacity="0.32"/>
<rect x="112" y="392.3" width="820" height="13.4" fill="#f3b0b0" opacity="0.32"/>
<rect x="112" y="338.5" width="820" height="20.2" fill="#f3b0b0" opacity="0.32"/>
<line x1="112" y1="425.9" x2="932" y2="425.9" stroke="#d9dde5" stroke-width="1"/>
<text x="102" y="429.9" text-anchor="end" font-size="12" fill="#626b7a">250</text>
<line x1="112" y1="358.7" x2="932" y2="358.7" stroke="#d9dde5" stroke-width="1"/>
<text x="102" y="362.7" text-anchor="end" font-size="12" fill="#626b7a">300</text>
<line x1="112.0" y1="324" x2="112.0" y2="474" stroke="#d9dde5" stroke-width="1"/>
<text x="112.0" y="494" text-anchor="middle" font-size="12" fill="#626b7a">0</text>
<line x1="276.0" y1="324" x2="276.0" y2="474" stroke="#d9dde5" stroke-width="1"/>
<text x="276.0" y="494" text-anchor="middle" font-size="12" fill="#626b7a">3</text>
<line x1="440.0" y1="324" x2="440.0" y2="474" stroke="#d9dde5" stroke-width="1"/>
<text x="440.0" y="494" text-anchor="middle" font-size="12" fill="#626b7a">6</text>
<line x1="604.0" y1="324" x2="604.0" y2="474" stroke="#d9dde5" stroke-width="1"/>
<text x="604.0" y="494" text-anchor="middle" font-size="12" fill="#626b7a">9</text>
<line x1="768.0" y1="324" x2="768.0" y2="474" stroke="#d9dde5" stroke-width="1"/>
<text x="768.0" y="494" text-anchor="middle" font-size="12" fill="#626b7a">12</text>
<line x1="932.0" y1="324" x2="932.0" y2="474" stroke="#d9dde5" stroke-width="1"/>
<text x="932.0" y="494" text-anchor="middle" font-size="12" fill="#626b7a">15</text>
<line x1="112" y1="474" x2="932" y2="474" stroke="#2f3542" stroke-width="1.5"/>
<line x1="112" y1="324" x2="112" y2="474" stroke="#2f3542" stroke-width="1.5"/>
<polyline points="112.0,406.7 115.6,406.4 119.3,406.0 122.9,405.5 126.6,405.0 130.2,404.6 133.9,404.1 137.5,403.7 141.2,403.2 144.8,402.8 148.4,402.5 152.1,402.1 155.7,401.8 159.4,401.6 163.0,401.4 166.7,401.3 170.3,401.3 174.0,401.3 177.6,401.4 181.2,401.6 184.9,401.7 188.5,402.0 192.2,402.4 195.8,402.6 199.5,403.0 203.1,403.6 206.8,404.0 210.4,404.4 214.0,404.9 217.7,405.3 221.3,405.9 225.0,406.3 228.6,406.7 232.3,406.9 235.9,407.2 239.6,407.5 243.2,407.6 246.8,407.7 250.5,407.9 254.1,407.7 257.8,407.7 261.4,407.6 265.1,407.3 268.7,407.1 272.4,406.8 276.0,406.4 279.6,406.0 283.3,405.6 286.9,405.2 290.6,404.6 294.2,404.2 297.9,403.7 301.5,403.3 305.2,402.9 308.8,402.5 312.4,402.2 316.1,401.8 319.7,401.7 323.4,401.4 327.0,401.3 330.7,401.3 334.3,401.3 338.0,401.3 341.6,401.4 345.2,401.7 348.9,402.0 352.5,402.2 356.2,402.6 359.8,403.0 363.5,403.4 367.1,403.8 370.8,404.4 374.4,404.8 378.0,405.3 381.7,405.7 385.3,406.1 389.0,406.5 392.6,406.8 396.3,407.2 399.9,407.5 403.6,407.6 407.2,407.7 410.8,407.9 414.5,407.9 418.1,407.7 421.8,407.6 425.4,407.5 429.1,407.2 432.7,406.9 436.4,406.5 440.0,406.1 443.6,405.7 447.3,405.3 450.9,404.8 454.6,404.4 458.2,403.8 461.9,403.4 465.5,403.0 469.2,402.6 472.8,402.2 476.4,402.0 480.1,401.7 483.7,401.4 487.4,401.3 491.0,401.3 494.7,401.3 498.3,401.3 502.0,401.4 505.6,401.7 509.2,401.8 512.9,402.2 516.5,402.5 520.2,402.9 523.8,403.3 527.5,403.7 531.1,404.2 534.8,404.6 538.4,405.2 542.0,405.6 545.7,406.0 549.3,406.4 553.0,406.8 556.6,407.1 560.3,407.3 563.9,407.6 567.6,407.7 571.2,407.7 574.8,407.9 578.5,407.7 582.1,407.6 585.8,407.5 589.4,407.2 593.1,406.9 596.7,406.7 600.4,406.3 604.0,405.9 607.6,405.3 611.3,404.9 614.9,404.4 618.6,404.0 622.2,403.6 625.9,403.0 629.5,402.6 633.2,402.4 636.8,402.0 640.4,401.7 644.1,401.6 647.7,401.4 651.4,401.3 655.0,401.3 658.7,401.3 662.3,401.4 666.0,401.6 669.6,401.8 673.2,402.1 676.9,402.5 680.5,402.8 684.2,403.2 687.8,403.7 691.5,404.1 695.1,404.6 698.8,405.0 702.4,405.5 706.0,406.0 709.7,406.4 713.3,406.7 717.0,407.1 720.6,407.3 724.3,407.5 727.9,407.7 731.6,407.7 735.2,407.9 738.8,407.7 742.5,407.7 746.1,407.5 749.8,407.3 753.4,407.1 757.1,406.7 760.7,406.3 764.4,405.9 768.0,405.5 771.6,405.0 775.3,404.5 778.9,404.1 782.6,403.6 786.2,403.2 789.9,402.8 793.5,402.4 797.2,402.1 800.8,401.8 804.4,401.6 808.1,401.4 811.7,401.3 815.4,401.3 819.0,401.3 822.7,401.4 826.3,401.6 830.0,401.7 833.6,402.1 837.2,402.4 840.9,402.8 844.5,403.2 848.2,403.6 851.8,404.0 855.5,404.5 859.1,404.9 862.8,405.5 866.4,405.9 870.0,406.3 873.7,406.7 877.3,406.9 881.0,407.2 884.6,407.5 888.3,407.6 891.9,407.7 895.6,407.9 899.2,407.7 902.8,407.7 906.5,407.6 910.1,407.3 913.8,407.1 917.4,406.8 921.1,406.4 924.7,406.0 928.4,405.6 932.0,405.0" fill="none" stroke="#5a4fcf" stroke-width="2.6" stroke-linejoin="round" stroke-linecap="round"/>
<text x="48" y="399.0" transform="rotate(-90 48 399.0)" text-anchor="middle" font-size="12" fill="#626b7a">deg</text>
<rect x="752" y="292" width="18" height="10" fill="#f3b0b0" opacity="0.45"/>
<text x="778" y="302" font-size="12" fill="#626b7a">wake-overlap directions</text>
<text x="522.0" y="514" text-anchor="middle" font-size="13" fill="#626b7a">Time (min)</text>
</svg>