<svg xmlns="http://www.w3.org/2000/svg" width="980" height="540" viewBox="0 0 980 540">
<style>text{font-family:Arial, Helvetica, sans-serif}</style>
<rect width="980" height="540" fill="#f7f8fb"/>
<text x="112" y="42" font-size="22" font-weight="700" fill="#20242c">Scenario 01</text>
<text x="112" y="78" font-size="16" font-weight="700" fill="#20242c">Wind speed</text>
<rect x="112" y="92" width="820" height="150" fill="#ffffff" stroke="#d9dde5"/>
<line x1="112" y1="234.4" x2="932" y2="234.4" stroke="#d9dde5" stroke-width="1"/>
<text x="102" y="238.4" text-anchor="end" font-size="12" fill="#626b7a">4.00</text>
<line x1="112" y1="199.8" x2="932" y2="199.8" stroke="#d9dde5" stroke-width="1"/>
<text x="102" y="203.8" text-anchor="end" font-size="12" fill="#626b7a">6.00</text>
<line x1="112" y1="165.3" x2="932" y2="165.3" stroke="#d9dde5" stroke-width="1"/>
<text x="102" y="169.3" text-anchor="end" font-size="12" fill="#626b7a">8.00</text>
<line x1="112" y1="130.7" x2="932" y2="130.7" stroke="#d9dde5" stroke-width="1"/>
<text x="102" y="134.7" text-anchor="end" font-size="12" fill="#626b7a">10.0</text>
<line x1="112" y1="96.1" x2="932" y2="96.1" stroke="#d9dde5" stroke-width="1"/>
<text x="102" y="100.1" text-anchor="end" font-size="12" fill="#626b7a">12.0</text>
<line x1="112.0" y1="92" x2="112.0" y2="242" stroke="#d9dde5" stroke-width="1"/>
<line x1="276.0" y1="92" x2="276.0" y2="242" stroke="#d9dde5" stroke-width="1"/>
<line x1="440.0" y1="92" x2="440.0" y2="242" stroke="#d9dde5" stroke-width="1"/>
<line x1="604.0" y1="92" x2="604.0" y2="242" stroke="#d9dde5" stroke-width="1"/>
<line x1="768.0" y1="92" x2="768.0" y2="242" stroke="#d9dde5" stroke-width="1"/>
<line x1="932.0" y1="92" x2="932.0" y2="242" stroke="#d9dde5" stroke-width="1"/>
<line x1="112" y1="106.5" x2="932" y2="106.5" stroke="#b93636" stroke-width="2" stroke-dasharray="7 5"/>
<text x="924" y="99.5" text-anchor="end" font-size="12" fill="#922828">rated 11.4 m/s</text>
<line x1="112" y1="242" x2="932" y2="242" stroke="#2f3542" stroke-width="1.5"/>
<line x1="112" y1="92" x2="112" y2="242" stroke="#2f3542" stroke-width="1.5"/>
<polyline points="112.0,225.8 115.6,225.8 119.3,224.0 122.9,224.0 126.6,222.3 130.2,220.6 133.9,218.8 137.5,217.1 141.2,215.4 144.8,215.4 148.4,213.7 152.1,213.7 155.7,211.9 159.4,211.9 163.0,213.7 166.7,213.7 170.3,213.7 174.0,215.4 177.6,217.1 181.2,218.8 184.9,220.6 188.5,222.3 192.2,222.3 195.8,224.0 199.5,225.8 203.1,225.8 206.8,227.5 210.4,227.5 214.0,227.5 217.7,225.8 221.3,225.8 225.0,224.0 228.6,222.3 232.3,222.3 235.9,220.6 239.6,218.8 243.2,217.1 246.8,215.4 250.5,213.7 254.1,213.7 257.8,213.7 261.4,211.9 265.1,211.9 268.7,213.7 272.4,213.7 276.0,215.4 279.6,215.4 283.3,217.1 286.9,218.8 290.6,220.6 294.2,222.3 297.9,224.0 301.5,224.0 305.2,225.8 308.8,225.8 312.4,227.5 316.1,227.5 319.7,227.5 323.4,225.8 327.0,225.8 330.7,224.0 334.3,222.3 338.0,220.6 341.6,218.8 345.2,218.8 348.9,217.1 352.5,215.4 356.2,213.7 359.8,213.7 363.5,211.9 367.1,211.9 370.8,211.9 374.4,213.7 378.0,213.7 381.7,215.4 385.3,217.1 389.0,217.1 392.6,218.8 396.3,220.6 399.9,222.3 403.6,224.0 407.2,225.8 410.8,225.8 414.5,227.5 418.1,227.5 421.8,227.5 425.4,225.8 429.1,225.8 432.7,224.0 436.4,224.0 440.0,222.3 443.6,220.6 447.3,218.8 450.9,217.1 454.6,215.4 458.2,215.4 461.9,213.7 465.5,213.7 469.2,211.9 472.8,211.9 476.4,213.7 480.1,213.7 483.7,213.7 487.4,215.4 491.0,217.1 494.7,218.8 498.3,220.6 502.0,222.3 505.6,222.3 509.2,224.0 512.9,225.8 516.5,225.8 520.2,227.5 523.8,227.5 527.5,227.5 531.1,225.8 534.8,225.8 538.4,224.0 542.0,224.0 545.7,222.3 549.3,220.6 553.0,218.8 556.6,217.1 560.3,215.4 563.9,213.7 567.6,213.7 571.2,213.7 574.8,211.9 578.5,211.9 582.1,213.7 585.8,213.7 589.4,215.4 593.1,215.4 596.7,217.1 600.4,218.8 604.0,220.6 607.6,222.3 611.3,224.0 614.9,224.0 618.6,225.8 622.2,225.8 625.9,227.5 629.5,227.5 633.2,227.5 636.8,225.8 640.4,225.8 644.1,224.0 647.7,222.3 651.4,220.6 655.0,218.8 658.7,218.8 662.3,217.1 666.0,215.4 669.6,213.7 673.2,213.7 676.9,211.9 680.5,211.9 684.2,211.9 687.8,213.7 691.5,213.7 695.1,215.4 698.8,217.1 702.4,217.1 706.0,218.8 709.7,220.6 713.3,222.3 717.0,224.0 720.6,225.8 724.3,225.8 727.9,227.5 731.6,227.5 735.2,227.5 738.8,225.8 742.5,225.8 746.1,225.8 749.8,224.0 753.4,222.3 757.1,220.6 760.7,218.8 764.4,217.1 768.0,215.4 771.6,215.4 775.3,213.7 778.9,213.7 782.6,211.9 786.2,211.9 789.9,213.7 793.5,213.7 797.2,213.7 800.8,215.4 804.4,217.1 808.1,218.8 811.7,220.6 815.4,220.6 819.0,222.3 822.7,224.0 826.3,225.8 830.0,225.8 833.6,227.5 837.2,227.5 840.9,227.5 844.5,225.8 848.2,225.8 851.8,224.0 855.5,224.0 859.1,222.3 862.8,220.6 866.4,218.8 870.0,217.1 873.7,215.4 877.3,215.4 881.0,213.7 884.6,213.7 888.3,211.9 891.9,211.9 895.6,213.7 899.2,213.7 902.8,215.4 906.5,215.4 910.1,217.1 913.8,218.8 917.4,220.6 921.1,222.3 924.7,224.0 928.4,224.0 932.0,225.8" fill="none" stroke="#1b6b57" stroke-width="2.6" stroke-linejoin="round" stroke-linecap="round"/>
<text x="48" y="167.0" transform="rotate(-90 48 167.0)" text-anchor="middle" font-size="12" fill="#626b7a">m/s</text>
<text x="112" y="310" font-size="16" font-weight="700" fill="#20242c">Wind direction</text>
<rect x="112" y="324" width="820" height="150" fill="#ffffff" stroke="#d9dde5"/>
<rect x="112" y="439.3" width="820" height="20.2" fill="#f3b0b0" opacity="0.32"/>
<rect x="112" y="392.3" width="820" height="13.4" fill="#f3b0b0" opacity="0.32"/>
<rect x="112" y="338.5" width="820" height="20.2" fill="#f3b0b0" opacity="0.32"/>
<line x1="112" y1="425.9" x2="932" y2="425.9" stroke="#d9dde5" stroke-width="1"/>
<text x="102" y="429.9" text-anchor="end" font-size="12" fill="#626b7a">250</text>
<line x1="112" y1="358.7" x2="932" y2="358.7" stroke="#d9dde5" stroke-width="1"/>
<text x="102" y="362.7" text-anchor="end" font-size="12" fill="#626b7a">300</text>
<line x1="112.0" y1="324" x2="112.0" y2="474" stroke="#d9dde5" stroke-width="1"/>
<text x="112.0" y="494" text-anchor="middle" font-size="12" fill="#626b7a">0</text>
<line x1="276.0" y1="324" x2="276.0" y2="474" stroke="#d9dde5" stroke-width="1"/>
<text x="276.0" y="494" text-anchor="middle" font-size="12" fill="#626b7a">3</text>
<line x1="440.0" y1="324" x2="440.0" y2="474" stroke="#d9dde5" stroke-width="1"/>
<text x="440.0" y="494" text-anchor="middle" font-size="12" fill="#626b7a">6</text>
<line x1="604.0" y1="324" x2="604.0" y2="474" stroke="#d9dde5" stroke-width="1"/>
<text x="604.0" y="494" text-anchor="middle" font-size="12" fill="#626b7a">9</text>
<line x1="768.0" y1="324" x2="768.0" y2="474" stroke="#d9dde5" stroke-width="1"/>
<text x="768.0" y="494" text-anchor="middle" font-size="12" fill="#626b7a">12</text>
<line x1="932.0" y1="324" x2="932.0" y2="474" stroke="#d9dde5" stroke-width="1"/>
<text x="932.0" y="494" text-anchor="middle" font-size="12" fill="#626b7a">15</text>
<line x1="112" y1="474" x2="932" y2="474" stroke="#2f3542" stroke-width="1.5"/>
<line x1="112" y1="324" x2="112" y2="474" stroke="#2f3542" stroke-width="1.5"/>
<polyline points="112.0,398.9 115.6,398.3 119.3,398.2 122.9,398.6 126.6,399.3 130.2,400.5 133.9,401.8 137.5,403.4 141.2,405.2 144.8,406.9 148.4,408.5 152.1,410.0 155.7,411.1 159.4,411.9 163.0,412.3 166.7,412.2 170.3,411.6 174.0,410.7 177.6,409.5 181.2,408.0 184.9,406.3 188.5,404.5 192.2,402.9 195.8,401.3 199.5,399.9 203.1,399.0 206.8,398.5 210.4,398.2 214.0,398.5 217.7,399.1 221.3,400.2 225.0,401.6 228.6,403.2 232.3,404.9 235.9,406.7 239.6,408.4 243.2,409.8 246.8,411.0 250.5,411.8 254.1,412.2 257.8,412.2 261.4,411.8 265.1,411.0 268.7,409.8 272.4,408.3 276.0,406.5 279.6,404.8 283.3,403.0 286.9,401.6 290.6,400.1 294.2,399.1 297.9,398.5 301.5,398.2 305.2,398.5 308.8,399.0 312.4,400.1 316.1,401.4 319.7,403.0 323.4,404.6 327.0,406.4 330.7,408.1 334.3,409.6 338.0,410.8 341.6,411.8 345.2,412.2 348.9,412.3 352.5,411.9 356.2,411.1 359.8,409.9 363.5,408.4 367.1,406.8 370.8,405.0 374.4,403.3 378.0,401.7 381.7,400.3 385.3,399.3 389.0,398.5 392.6,398.2 396.3,398.3 399.9,399.0 403.6,399.9 407.2,401.2 410.8,402.8 414.5,404.5 418.1,406.3 421.8,407.9 425.4,409.5 429.1,410.7 432.7,411.6 436.4,412.2 440.0,412.3 443.6,411.9 447.3,411.2 450.9,410.0 454.6,408.7 458.2,407.1 461.9,405.3 465.5,403.6 469.2,402.0 472.8,400.5 476.4,399.4 480.1,398.6 483.7,398.2 487.4,398.3 491.0,398.9 494.7,399.8 498.3,401.0 502.0,402.5 505.6,404.2 509.2,406.0 512.9,407.7 516.5,409.2 520.2,410.6 523.8,411.5 527.5,412.2 531.1,412.3 534.8,412.0 538.4,411.4 542.0,410.3 545.7,408.8 549.3,407.2 553.0,405.6 556.6,403.8 560.3,402.1 563.9,400.6 567.6,399.5 571.2,398.7 574.8,398.3 578.5,398.3 582.1,398.7 585.8,399.7 589.4,400.9 593.1,402.4 596.7,404.0 600.4,405.7 604.0,407.5 607.6,409.1 611.3,410.4 614.9,411.4 618.6,412.0 622.2,412.3 625.9,412.0 629.5,411.4 633.2,410.4 636.8,409.1 640.4,407.5 644.1,405.7 647.7,404.0 651.4,402.4 655.0,400.9 658.7,399.7 662.3,398.7 666.0,398.3 669.6,398.3 673.2,398.7 676.9,399.5 680.5,400.6 684.2,402.1 687.8,403.7 691.5,405.5 695.1,407.2 698.8,408.8 702.4,410.2 706.0,411.2 709.7,412.0 713.3,412.3 717.0,412.2 720.6,411.5 724.3,410.6 727.9,409.2 731.6,407.7 735.2,406.0 738.8,404.2 742.5,402.5 746.1,401.0 749.8,399.8 753.4,398.9 757.1,398.3 760.7,398.2 764.4,398.6 768.0,399.4 771.6,400.5 775.3,401.8 778.9,403.6 782.6,405.3 786.2,406.9 789.9,408.7 793.5,410.0 797.2,411.1 800.8,411.9 804.4,412.3 808.1,412.2 811.7,411.6 815.4,410.7 819.0,409.5 822.7,407.9 826.3,406.3 830.0,404.5 833.6,402.8 837.2,401.3 840.9,399.9 844.5,399.0 848.2,398.3 851.8,398.2 855.5,398.5 859.1,399.3 862.8,400.3 866.4,401.7 870.0,403.3 873.7,405.0 877.3,406.8 881.0,408.4 884.6,409.9 888.3,411.0 891.9,411.9 895.6,412.2 899.2,412.2 902.8,411.8 906.5,410.8 910.1,409.6 913.8,408.1 917.4,406.5 921.1,404.8 924.7,403.0 928.4,401.4 932.0,400.1" fill="none" stroke="#5a4fcf" stroke-width="2.6" stroke-linejoin="round" stroke-linecap="round"/>
<text x="48" y="399.0" transform="rotate(-90 48 399.0)" text-anchor="middle" font-size="12" fill="#626b7a">deg</text>
<rect x="752" y="292" width="18" height="10" fill="#f3b0b0" opacity="0.45"/>
<text x="778" y="302" font-size="12" fill="#626b7a">wake-overlap directions</text>
<text x="522.0" y="514" text-anchor="middle" font-size="13" fill="#626b7a">Time (min)</text>
</svg>