<svg xmlns="http://www.w3.org/2000/svg" width="980" height="540" viewBox="0 0 980 540">
<style>text{font-family:Arial, Helvetica, sans-serif}</style>
<rect width="980" height="540" fill="#f7f8fb"/>
<text x="112" y="42" font-size="22" font-weight="700" fill="#20242c">Scenario 07</text>
<text x="112" y="78" font-size="16" font-weight="700" fill="#20242c">Wind speed</text>
<rect x="112" y="92" width="820" height="150" fill="#ffffff" stroke="#d9dde5"/>
<line x1="112" y1="240.9" x2="932" y2="240.9" stroke="#d9dde5" stroke-width="1"/>
<text x="102" y="244.9" text-anchor="end" font-size="12" fill="#626b7a">11.0</text>
<line x1="112" y1="207.3" x2="932" y2="207.3" stroke="#d9dde5" stroke-width="1"/>
<text x="102" y="211.3" text-anchor="end" font-size="12" fill="#626b7a">12.0</text>
<line x1="112" y1="173.7" x2="932" y2="173.7" stroke="#d9dde5" stroke-width="1"/>
<text x="102" y="177.7" text-anchor="end" font-size="12" fill="#626b7a">13.0</text>
<line x1="112" y1="140.1" x2="932" y2="140.1" stroke="#d9dde5" stroke-width="1"/>
<text x="102" y="144.1" text-anchor="end" font-size="12" fill="#626b7a">14.0</text>
<line x1="112" y1="106.5" x2="932" y2="106.5" stroke="#d9dde5" stroke-width="1"/>
<text x="102" y="110.5" text-anchor="end" font-size="12" fill="#626b7a">15.0</text>
<line x1="112.0" y1="92" x2="112.0" y2="242" stroke="#d9dde5" stroke-width="1"/>
<line x1="276.0" y1="92" x2="276.0" y2="242" stroke="#d9dde5" stroke-width="1"/>
<line x1="440.0" y1="92" x2="440.0" y2="242" stroke="#d9dde5" stroke-width="1"/>
<line x1="604.0" y1="92" x2="604.0" y2="242" stroke="#d9dde5" stroke-width="1"/>
<line x1="768.0" y1="92" x2="768.0" y2="242" stroke="#d9dde5" stroke-width="1"/>
<line x1="932.0" y1="92" x2="932.0" y2="242" stroke="#d9dde5" stroke-width="1"/>
<line x1="112" y1="227.5" x2="932" y2="227.5" stroke="#b93636" stroke-width="2" stroke-dasharray="7 5"/>
<text x="924" y="220.5" text-anchor="end" font-size="12" fill="#922828">rated 11.4 m/s</text>
<line x1="112" y1="242" x2="932" y2="242" stroke="#2f3542" stroke-width="1.5"/>
<line x1="112" y1="92" x2="112" y2="242" stroke="#2f3542" stroke-width="1.5"/>
<polyline points="112.0,113.2 115.6,113.2 119.3,109.9 122.9,109.9 126.6,109.9 130.2,109.9 133.9,109.9 137.5,106.5 141.2,106.5 144.8,106.5 148.4,106.5 152.1,106.5 155.7,106.5 159.4,106.5 163.0,106.5 166.7,106.5 170.3,106.5 174.0,106.5 177.6,106.5 181.2,109.9 184.9,109.9 188.5,109.9 192.2,109.9 195.8,109.9 199.5,113.2 203.1,113.2 206.8,113.2 210.4,113.2 214.0,113.2 217.7,113.2 221.3,116.6 225.0,116.6 228.6,116.6 232.3,116.6 235.9,116.6 239.6,113.2 243.2,113.2 246.8,113.2 250.5,113.2 254.1,113.2 257.8,113.2 261.4,109.9 265.1,109.9 268.7,109.9 272.4,109.9 276.0,109.9 279.6,106.5 283.3,106.5 286.9,106.5 290.6,106.5 294.2,106.5 297.9,106.5 301.5,106.5 305.2,106.5 308.8,106.5 312.4,106.5 316.1,106.5 319.7,106.5 323.4,109.9 327.0,109.9 330.7,109.9 334.3,109.9 338.0,109.9 341.6,113.2 345.2,113.2 348.9,113.2 352.5,113.2 356.2,113.2 359.8,113.2 363.5,116.6 367.1,116.6 370.8,116.6 374.4,116.6 378.0,116.6 381.7,113.2 385.3,113.2 389.0,113.2 392.6,113.2 396.3,113.2 399.9,113.2 403.6,109.9 407.2,109.9 410.8,109.9 414.5,109.9 418.1,109.9 421.8,106.5 425.4,106.5 429.1,106.5 432.7,106.5 436.4,106.5 440.0,106.5 443.6,106.5 447.3,106.5 450.9,106.5 454.6,106.5 458.2,106.5 461.9,106.5 465.5,109.9 469.2,109.9 472.8,109.9 476.4,109.9 480.1,109.9 483.7,113.2 487.4,113.2 491.0,113.2 494.7,113.2 498.3,113.2 502.0,113.2 505.6,116.6 509.2,116.6 512.9,116.6 516.5,116.6 520.2,116.6 523.8,113.2 527.5,113.2 531.1,113.2 534.8,113.2 538.4,113.2 542.0,113.2 545.7,109.9 549.3,109.9 553.0,109.9 556.6,109.9 560.3,109.9 563.9,106.5 567.6,106.5 571.2,106.5 574.8,106.5 578.5,106.5 582.1,106.5 585.8,106.5 589.4,106.5 593.1,106.5 596.7,106.5 600.4,106.5 604.0,106.5 607.6,109.9 611.3,109.9 614.9,109.9 618.6,109.9 622.2,109.9 625.9,113.2 629.5,113.2 633.2,113.2 636.8,113.2 640.4,113.2 644.1,113.2 647.7,116.6 651.4,116.6 655.0,116.6 658.7,116.6 662.3,116.6 666.0,113.2 669.6,113.2 673.2,113.2 676.9,113.2 680.5,113.2 684.2,113.2 687.8,109.9 691.5,109.9 695.1,109.9 698.8,109.9 702.4,109.9 706.0,106.5 709.7,106.5 713.3,106.5 717.0,106.5 720.6,106.5 724.3,106.5 727.9,106.5 731.6,106.5 735.2,106.5 738.8,106.5 742.5,106.5 746.1,106.5 749.8,109.9 753.4,109.9 757.1,109.9 760.7,109.9 764.4,109.9 768.0,113.2 771.6,113.2 775.3,113.2 778.9,113.2 782.6,113.2 786.2,113.2 789.9,116.6 793.5,116.6 797.2,116.6 800.8,116.6 804.4,116.6 808.1,113.2 811.7,113.2 815.4,113.2 819.0,113.2 822.7,113.2 826.3,113.2 830.0,109.9 833.6,109.9 837.2,109.9 840.9,109.9 844.5,109.9 848.2,106.5 851.8,106.5 855.5,106.5 859.1,106.5 862.8,106.5 866.4,106.5 870.0,106.5 873.7,106.5 877.3,106.5 881.0,106.5 884.6,106.5 888.3,106.5 891.9,109.9 895.6,109.9 899.2,109.9 902.8,109.9 906.5,109.9 910.1,113.2 913.8,113.2 917.4,113.2 921.1,113.2 924.7,113.2 928.4,113.2 932.0,116.6" fill="none" stroke="#1b6b57" stroke-width="2.6" stroke-linejoin="round" stroke-linecap="round"/>
<text x="48" y="167.0" transform="rotate(-90 48 167.0)" text-anchor="middle" font-size="12" fill="#626b7a">m/s</text>
<text x="112" y="310" font-size="16" font-weight="700" fill="#20242c">Wind direction</text>
<rect x="112" y="324" width="820" height="150" fill="#ffffff" stroke="#d9dde5"/>
<rect x="112" y="439.3" width="820" height="20.2" fill="#f3b0b0" opacity="0.32"/>
<rect x="112" y="392.3" width="820" height="13.4" fill="#f3b0b0" opacity="0.32"/>
<rect x="112" y="338.5" width="820" height="20.2" fill="#f3b0b0" opacity="0.32"/>
<line x1="112" y1="425.9" x2="932" y2="425.9" stroke="#d9dde5" stroke-width="1"/>
<text x="102" y="429.9" text-anchor="end" font-size="12" fill="#626b7a">250</text>
<line x1="112" y1="358.7" x2="932" y2="358.7" stroke="#d9dde5" stroke-width="1"/>
<text x="102" y="362.7" text-anchor="end" font-size="12" fill="#626b7a">300</text>
<line x1="112.0" y1="324" x2="112.0" y2="474" stroke="#d9dde5" stroke-width="1"/>
<text x="112.0" y="494" text-anchor="middle" font-size="12" fill="#626b7a">0</text>
<line x1="276.0" y1="324" x2="276.0" y2="474" stroke="#d9dde5" stroke-width="1"/>
<text x="276.0" y="494" text-anchor="middle" font-size="12" fill="#626b7a">3</text>
<line x1="440.0" y1="324" x2="440.0" y2="474" stroke="#d9dde5" stroke-width="1"/>
<text x="440.0" y="494" text-anchor="middle" font-size="12" fill="#626b7a">6</text>
<line x1="604.0" y1="324" x2="604.0" y2="474" stroke="#d9dde5" stroke-width="1"/>
<text x="604.0" y="494" text-anchor="middle" font-size="12" fill="#626b7a">9</text>
<line x1="768.0" y1="324" x2="768.0" y2="474" stroke="#d9dde5" stroke-width="1"/>
<text x="768.0" y="494" text-anchor="middle" font-size="12" fill="#626b7a">12</text>
<line x1="932.0" y1="324" x2="932.0" y2="474" stroke="#d9dde5" stroke-width="1"/>
<text x="932.0" y="494" text-anchor="middle" font-size="12" fill="#626b7a">15</text>
<line x1="112" y1="474" x2="932" y2="474" stroke="#2f3542" stroke-width="1.5"/>
<line x1="112" y1="324" x2="112" y2="474" stroke="#2f3542" stroke-width="1.5"/>
<polyline points="112.0,379.6 115.6,381.0 119.3,382.3 122.9,383.3 126.6,383.9 130.2,384.2 133.9,384.1 137.5,383.7 141.2,382.9 144.8,381.8 148.4,380.5 152.1,379.0 155.7,377.6 159.4,376.2 163.0,374.9 166.7,374.0 170.3,373.5 174.0,373.2 177.6,373.2 181.2,373.7 184.9,374.5 188.5,375.6 192.2,377.0 195.8,378.4 199.5,379.8 203.1,381.3 206.8,382.5 210.4,383.3 214.0,383.9 217.7,384.2 221.3,384.1 225.0,383.5 228.6,382.7 232.3,381.7 235.9,380.3 239.6,378.8 243.2,377.4 246.8,376.0 250.5,374.9 254.1,374.0 257.8,373.3 261.4,373.2 265.1,373.3 268.7,373.9 272.4,374.7 276.0,375.7 279.6,377.1 283.3,378.6 286.9,380.0 290.6,381.4 294.2,382.5 297.9,383.4 301.5,383.9 305.2,384.2 308.8,384.1 312.4,383.5 316.1,382.6 319.7,381.5 323.4,380.2 327.0,378.7 330.7,377.2 334.3,375.9 338.0,374.8 341.6,373.9 345.2,373.3 348.9,373.2 352.5,373.3 356.2,373.9 359.8,374.8 363.5,375.9 367.1,377.4 370.8,378.7 374.4,380.2 378.0,381.5 381.7,382.6 385.3,383.5 389.0,384.1 392.6,384.2 396.3,383.9 399.9,383.4 403.6,382.5 407.2,381.3 410.8,379.9 414.5,378.6 418.1,377.1 421.8,375.7 425.4,374.7 429.1,373.7 432.7,373.3 436.4,373.2 440.0,373.3 443.6,374.0 447.3,374.9 450.9,376.2 454.6,377.5 458.2,379.0 461.9,380.3 465.5,381.7 469.2,382.7 472.8,383.5 476.4,384.1 480.1,384.2 483.7,383.9 487.4,383.3 491.0,382.3 494.7,381.1 498.3,379.8 502.0,378.3 505.6,377.0 509.2,375.6 512.9,374.5 516.5,373.7 520.2,373.2 523.8,373.2 527.5,373.5 531.1,374.1 534.8,375.1 538.4,376.3 542.0,377.6 545.7,379.1 549.3,380.5 553.0,381.8 556.6,382.9 560.3,383.7 563.9,384.1 567.6,384.2 571.2,383.9 574.8,383.3 578.5,382.2 582.1,381.0 585.8,379.6 589.4,378.2 593.1,376.7 596.7,375.5 600.4,374.4 604.0,373.6 607.6,373.2 611.3,373.2 614.9,373.5 618.6,374.1 622.2,375.2 625.9,376.4 629.5,377.8 633.2,379.2 636.8,380.7 640.4,381.9 644.1,383.0 647.7,383.8 651.4,384.2 655.0,384.2 658.7,383.8 662.3,383.1 666.0,382.1 669.6,380.9 673.2,379.4 676.9,378.0 680.5,376.6 684.2,375.3 687.8,374.3 691.5,373.6 695.1,373.2 698.8,373.2 702.4,373.6 706.0,374.3 709.7,375.3 713.3,376.6 717.0,378.0 720.6,379.4 724.3,380.9 727.9,382.1 731.6,383.1 735.2,383.8 738.8,384.2 742.5,384.2 746.1,383.8 749.8,383.0 753.4,381.9 757.1,380.7 760.7,379.2 764.4,377.8 768.0,376.4 771.6,375.2 775.3,374.1 778.9,373.5 782.6,373.2 786.2,373.2 789.9,373.6 793.5,374.4 797.2,375.5 800.8,376.7 804.4,378.2 808.1,379.6 811.7,381.0 815.4,382.2 819.0,383.3 822.7,383.9 826.3,384.2 830.0,384.1 833.6,383.7 837.2,382.9 840.9,381.8 844.5,380.5 848.2,379.1 851.8,377.6 855.5,376.3 859.1,375.1 862.8,374.1 866.4,373.5 870.0,373.2 873.7,373.2 877.3,373.7 881.0,374.5 884.6,375.6 888.3,377.0 891.9,378.3 895.6,379.8 899.2,381.1 902.8,382.3 906.5,383.3 910.1,383.9 913.8,384.2 917.4,384.1 921.1,383.5 924.7,382.7 928.4,381.7 932.0,380.3" fill="none" stroke="#5a4fcf" stroke-width="2.6" stroke-linejoin="round" stroke-linecap="round"/>
<text x="48" y="399.0" transform="rotate(-90 48 399.0)" text-anchor="middle" font-size="12" fill="#626b7a">deg</text>
<rect x="752" y="292" width="18" height="10" fill="#f3b0b0" opacity="0.45"/>
<text x="778" y="302" font-size="12" fill="#626b7a">wake-overlap directions</text>
<text x="522.0" y="514" text-anchor="middle" font-size="13" fill="#626b7a">Time (min)</text>
</svg>