<svg xmlns="http://www.w3.org/2000/svg" width="980" height="540" viewBox="0 0 980 540">
<style>text{font-family:Arial, Helvetica, sans-serif}</style>
<rect width="980" height="540" fill="#f7f8fb"/>
<text x="112" y="42" font-size="22" font-weight="700" fill="#20242c">Scenario 08</text>
<text x="112" y="78" font-size="16" font-weight="700" fill="#20242c">Wind speed</text>
<rect x="112" y="92" width="820" height="150" fill="#ffffff" stroke="#d9dde5"/>
<line x1="112" y1="204.5" x2="932" y2="204.5" stroke="#d9dde5" stroke-width="1"/>
<text x="102" y="208.5" text-anchor="end" font-size="12" fill="#626b7a">5.00</text>
<line x1="112" y1="128.0" x2="932" y2="128.0" stroke="#d9dde5" stroke-width="1"/>
<text x="102" y="132.0" text-anchor="end" font-size="12" fill="#626b7a">10.0</text>
<line x1="112.0" y1="92" x2="112.0" y2="242" stroke="#d9dde5" stroke-width="1"/>
<line x1="276.0" y1="92" x2="276.0" y2="242" stroke="#d9dde5" stroke-width="1"/>
<line x1="440.0" y1="92" x2="440.0" y2="242" stroke="#d9dde5" stroke-width="1"/>
<line x1="604.0" y1="92" x2="604.0" y2="242" stroke="#d9dde5" stroke-width="1"/>
<line x1="768.0" y1="92" x2="768.0" y2="242" stroke="#d9dde5" stroke-width="1"/>
<line x1="932.0" y1="92" x2="932.0" y2="242" stroke="#d9dde5" stroke-width="1"/>
<line x1="112" y1="106.5" x2="932" y2="106.5" stroke="#b93636" stroke-width="2" stroke-dasharray="7 5"/>
<text x="924" y="99.5" text-anchor="end" font-size="12" fill="#922828">rated 11.4 m/s</text>
<line x1="112" y1="242" x2="932" y2="242" stroke="#2f3542" stroke-width="1.5"/>
<line x1="112" y1="92" x2="112" y2="242" stroke="#2f3542" stroke-width="1.5"/>
<polyline points="112.0,222.9 115.6,222.9 119.3,221.4 122.9,221.4 126.6,219.8 130.2,219.8 133.9,218.3 137.5,218.3 141.2,216.8 144.8,216.8 148.4,216.8 152.1,216.8 155.7,216.8 159.4,216.8 163.0,216.8 166.7,216.8 170.3,218.3 174.0,218.3 177.6,218.3 181.2,219.8 184.9,219.8 188.5,221.4 192.2,221.4 195.8,222.9 199.5,224.4 203.1,224.4 206.8,226.0 210.4,226.0 214.0,226.0 217.7,227.5 221.3,227.5 225.0,227.5 228.6,227.5 232.3,227.5 235.9,227.5 239.6,227.5 243.2,227.5 246.8,227.5 250.5,226.0 254.1,226.0 257.8,224.4 261.4,224.4 265.1,222.9 268.7,222.9 272.4,221.4 276.0,221.4 279.6,219.8 283.3,218.3 286.9,218.3 290.6,218.3 294.2,216.8 297.9,216.8 301.5,216.8 305.2,216.8 308.8,216.8 312.4,216.8 316.1,216.8 319.7,216.8 323.4,218.3 327.0,218.3 330.7,218.3 334.3,219.8 338.0,219.8 341.6,221.4 345.2,222.9 348.9,222.9 352.5,224.4 356.2,224.4 359.8,226.0 363.5,226.0 367.1,227.5 370.8,227.5 374.4,227.5 378.0,227.5 381.7,227.5 385.3,227.5 389.0,226.0 392.6,222.9 396.3,221.4 399.9,218.3 403.6,215.2 407.2,212.2 410.8,209.1 414.5,206.0 418.1,201.5 421.8,198.4 425.4,195.3 429.1,192.3 432.7,189.2 436.4,186.1 440.0,183.1 443.6,180.0 447.3,177.0 450.9,175.4 454.6,172.4 458.2,169.3 461.9,167.8 465.5,164.7 469.2,163.2 472.8,161.6 476.4,158.6 480.1,157.0 483.7,155.5 487.4,154.0 491.0,152.5 494.7,150.9 498.3,149.4 502.0,147.9 505.6,146.3 509.2,144.8 512.9,143.3 516.5,141.7 520.2,140.2 523.8,137.1 527.5,135.6 531.1,134.1 534.8,131.0 538.4,129.5 542.0,129.5 545.7,129.5 549.3,128.0 553.0,128.0 556.6,128.0 560.3,126.4 563.9,126.4 567.6,124.9 571.2,124.9 574.8,123.4 578.5,121.8 582.1,121.8 585.8,120.3 589.4,120.3 593.1,118.8 596.7,118.8 600.4,118.8 604.0,118.8 607.6,118.8 611.3,118.8 614.9,118.8 618.6,118.8 622.2,118.8 625.9,118.8 629.5,120.3 633.2,120.3 636.8,121.8 640.4,121.8 644.1,123.4 647.7,123.4 651.4,124.9 655.0,124.9 658.7,126.4 662.3,126.4 666.0,128.0 669.6,128.0 673.2,128.0 676.9,129.5 680.5,129.5 684.2,129.5 687.8,129.5 691.5,129.5 695.1,129.5 698.8,129.5 702.4,128.0 706.0,128.0 709.7,126.4 713.3,126.4 717.0,124.9 720.6,124.9 724.3,123.4 727.9,123.4 731.6,121.8 735.2,121.8 738.8,120.3 742.5,120.3 746.1,118.8 749.8,118.8 753.4,118.8 757.1,118.8 760.7,118.8 764.4,118.8 768.0,118.8 771.6,118.8 775.3,118.8 778.9,118.8 782.6,120.3 786.2,120.3 789.9,121.8 793.5,121.8 797.2,123.4 800.8,123.4 804.4,124.9 808.1,124.9 811.7,126.4 815.4,126.4 819.0,128.0 822.7,128.0 826.3,129.5 830.0,129.5 833.6,129.5 837.2,129.5 840.9,129.5 844.5,129.5 848.2,129.5 851.8,128.0 855.5,128.0 859.1,128.0 862.8,126.4 866.4,126.4 870.0,124.9 873.7,124.9 877.3,123.4 881.0,123.4 884.6,121.8 888.3,120.3 891.9,120.3 895.6,120.3 899.2,118.8 902.8,118.8 906.5,118.8 910.1,118.8 913.8,118.8 917.4,118.8 921.1,118.8 924.7,118.8 928.4,118.8 932.0,118.8" fill="none" stroke="#1b6b57" stroke-width="2.6" stroke-linejoin="round" stroke-linecap="round"/>
<text x="48" y="167.0" transform="rotate(-90 48 167.0)" text-anchor="middle" font-size="12" fill="#626b7a">m/s</text>
<text x="112" y="310" font-size="16" font-weight="700" fill="#20242c">Wind direction</text>
<rect x="112" y="324" width="820" height="150" fill="#ffffff" stroke="#d9dde5"/>
<rect x="112" y="439.3" width="820" height="20.2" fill="#f3b0b0" opacity="0.32"/>
<rect x="112" y="392.3" width="820" height="13.4" fill="#f3b0b0" opacity="0.32"/>
<rect x="112" y="338.5" width="820" height="20.2" fill="#f3b0b0" opacity="0.32"/>
<line x1="112" y1="425.9" x2="932" y2="425.9" stroke="#d9dde5" stroke-width="1"/>
<text x="102" y="429.9" text-anchor="end" font-size="12" fill="#626b7a">250</text>
<line x1="112" y1="358.7" x2="932" y2="358.7" stroke="#d9dde5" stroke-width="1"/>
<text x="102" y="362.7" text-anchor="end" font-size="12" fill="#626b7a">300</text>
<line x1="112.0" y1="324" x2="112.0" y2="474" stroke="#d9dde5" stroke-width="1"/>
<text x="112.0" y="494" text-anchor="middle" font-size="12" fill="#626b7a">0</text>
<line x1="276.0" y1="324" x2="276.0" y2="474" stroke="#d9dde5" stroke-width="1"/>
<text x="276.0" y="494" text-anchor="middle" font-size="12" fill="#626b7a">3</text>
<line x1="440.0" y1="324" x2="440.0" y2="474" stroke="#d9dde5" stroke-width="1"/>
<text x="440.0" y="494" text-anchor="middle" font-size="12" fill="#626b7a">6</text>
<line x1="604.0" y1="324" x2="604.0" y2="474" stroke="#d9dde5" stroke-width="1"/>
<text x="604.0" y="494" text-anchor="middle" font-size="12" fill="#626b7a">9</text>
<line x1="768.0" y1="324" x2="768.0" y2="474" stroke="#d9dde5" stroke-width="1"/>
<text x="768.0" y="494" text-anchor="middle" font-size="12" fill="#626b7a">12</text>
<line x1="932.0" y1="324" x2="932.0" y2="474" stroke="#d9dde5" stroke-width="1"/>
<text x="932.0" y="494" text-anchor="middle" font-size="12" fill="#626b7a">15</text>
<line x1="112" y1="474" x2="932" y2="474" stroke="#2f3542" stroke-width="1.5"/>
<line x1="112" y1="324" x2="112" y2="474" stroke="#2f3542" stroke-width="1.5"/>
<polyline points="112.0,405.0 115.6,405.7 119.3,406.7 122.9,407.7 126.6,409.1 130.2,410.4 133.9,411.6 137.5,412.8 141.2,413.8 144.8,414.5 148.4,415.0 152.1,415.0 155.7,414.9 159.4,414.2 163.0,413.4 166.7,412.3 170.3,411.1 174.0,409.8 177.6,408.5 181.2,407.3 184.9,406.3 188.5,405.5 192.2,404.9 195.8,404.6 199.5,404.8 203.1,405.3 206.8,406.0 210.4,407.1 214.0,408.3 217.7,409.5 221.3,410.8 225.0,412.2 228.6,413.2 232.3,414.1 235.9,414.7 239.6,415.0 243.2,415.0 246.8,414.6 250.5,413.9 254.1,413.0 257.8,411.9 261.4,410.6 265.1,409.3 268.7,408.0 272.4,406.8 276.0,405.9 279.6,405.2 283.3,404.8 286.9,404.6 290.6,404.9 294.2,405.6 297.9,406.4 301.5,407.5 305.2,408.7 308.8,410.0 312.4,411.4 316.1,412.6 319.7,413.7 323.4,414.3 327.0,414.9 330.7,415.0 334.3,414.9 338.0,414.5 341.6,413.7 345.2,412.6 348.9,411.4 352.5,410.2 356.2,408.8 359.8,407.3 363.5,405.5 367.1,403.7 370.8,402.2 374.4,401.2 378.0,400.3 381.7,399.9 385.3,399.7 389.0,399.8 392.6,400.2 396.3,400.6 399.9,401.0 403.6,401.4 407.2,401.8 410.8,402.0 414.5,401.7 418.1,401.3 421.8,400.5 425.4,399.3 429.1,397.9 432.7,396.2 436.4,394.2 440.0,392.1 443.6,390.0 447.3,387.8 450.9,385.8 454.6,383.9 458.2,382.3 461.9,381.0 465.5,380.0 469.2,379.4 472.8,379.0 476.4,379.0 480.1,379.1 483.7,379.5 487.4,379.9 491.0,380.5 494.7,380.9 498.3,381.1 502.0,381.1 505.6,380.9 509.2,381.1 512.9,381.0 516.5,380.6 520.2,379.9 523.8,378.8 527.5,377.8 531.1,376.4 534.8,375.1 538.4,373.9 542.0,372.7 545.7,371.8 549.3,371.2 553.0,370.8 556.6,370.8 560.3,371.0 563.9,371.7 567.6,372.5 571.2,373.7 574.8,374.9 578.5,376.3 582.1,377.5 585.8,378.7 589.4,379.8 593.1,380.5 596.7,381.0 600.4,381.1 604.0,380.9 607.6,380.3 611.3,379.5 614.9,378.4 618.6,377.2 622.2,375.9 625.9,374.7 629.5,373.5 633.2,372.4 636.8,371.4 640.4,370.9 644.1,370.8 647.7,370.8 651.4,371.3 655.0,372.0 658.7,372.9 662.3,374.1 666.0,375.5 669.6,376.8 673.2,378.0 676.9,379.1 680.5,380.0 684.2,380.7 687.8,381.0 691.5,381.0 695.1,380.7 698.8,380.0 702.4,379.1 706.0,378.0 709.7,376.7 713.3,375.5 717.0,374.1 720.6,372.9 724.3,372.0 727.9,371.3 731.6,370.8 735.2,370.8 738.8,370.9 742.5,371.4 746.1,372.4 749.8,373.5 753.4,374.7 757.1,376.0 760.7,377.2 764.4,378.4 768.0,379.5 771.6,380.3 775.3,380.9 778.9,381.1 782.6,381.0 786.2,380.5 789.9,379.8 793.5,378.7 797.2,377.5 800.8,376.3 804.4,374.9 808.1,373.7 811.7,372.5 815.4,371.7 819.0,371.0 822.7,370.8 826.3,370.8 830.0,371.2 833.6,371.8 837.2,372.8 840.9,373.9 844.5,375.1 848.2,376.4 851.8,377.8 855.5,378.8 859.1,379.9 862.8,380.6 866.4,381.0 870.0,381.1 873.7,380.9 877.3,380.2 881.0,379.4 884.6,378.3 888.3,377.1 891.9,375.7 895.6,374.4 899.2,373.2 902.8,372.3 906.5,371.4 910.1,370.9 913.8,370.8 917.4,370.9 921.1,371.3 924.7,372.1 928.4,373.2 932.0,374.4" fill="none" stroke="#5a4fcf" stroke-width="2.6" stroke-linejoin="round" stroke-linecap="round"/>
<text x="48" y="399.0" transform="rotate(-90 48 399.0)" text-anchor="middle" font-size="12" fill="#626b7a">deg</text>
<rect x="752" y="292" width="18" height="10" fill="#f3b0b0" opacity="0.45"/>
<text x="778" y="302" font-size="12" fill="#626b7a">wake-overlap directions</text>
<text x="522.0" y="514" text-anchor="middle" font-size="13" fill="#626b7a">Time (min)</text>
</svg>