<svg xmlns="http://www.w3.org/2000/svg" width="980" height="540" viewBox="0 0 980 540">
<style>text{font-family:Arial, Helvetica, sans-serif}</style>
<rect width="980" height="540" fill="#f7f8fb"/>
<text x="112" y="42" font-size="22" font-weight="700" fill="#20242c">Scenario 02</text>
<text x="112" y="78" font-size="16" font-weight="700" fill="#20242c">Wind speed</text>
<rect x="112" y="92" width="820" height="150" fill="#ffffff" stroke="#d9dde5"/>
<line x1="112" y1="211.9" x2="932" y2="211.9" stroke="#d9dde5" stroke-width="1"/>
<text x="102" y="215.9" text-anchor="end" font-size="12" fill="#626b7a">6.00</text>
<line x1="112" y1="172.9" x2="932" y2="172.9" stroke="#d9dde5" stroke-width="1"/>
<text x="102" y="176.9" text-anchor="end" font-size="12" fill="#626b7a">8.00</text>
<line x1="112" y1="133.8" x2="932" y2="133.8" stroke="#d9dde5" stroke-width="1"/>
<text x="102" y="137.8" text-anchor="end" font-size="12" fill="#626b7a">10.0</text>
<line x1="112" y1="94.8" x2="932" y2="94.8" stroke="#d9dde5" stroke-width="1"/>
<text x="102" y="98.8" text-anchor="end" font-size="12" fill="#626b7a">12.0</text>
<line x1="112.0" y1="92" x2="112.0" y2="242" stroke="#d9dde5" stroke-width="1"/>
<line x1="276.0" y1="92" x2="276.0" y2="242" stroke="#d9dde5" stroke-width="1"/>
<line x1="440.0" y1="92" x2="440.0" y2="242" stroke="#d9dde5" stroke-width="1"/>
<line x1="604.0" y1="92" x2="604.0" y2="242" stroke="#d9dde5" stroke-width="1"/>
<line x1="768.0" y1="92" x2="768.0" y2="242" stroke="#d9dde5" stroke-width="1"/>
<line x1="932.0" y1="92" x2="932.0" y2="242" stroke="#d9dde5" stroke-width="1"/>
<line x1="112" y1="106.5" x2="932" y2="106.5" stroke="#b93636" stroke-width="2" stroke-dasharray="7 5"/>
<text x="924" y="99.5" text-anchor="end" font-size="12" fill="#922828">rated 11.4 m/s</text>
<line x1="112" y1="242" x2="932" y2="242" stroke="#2f3542" stroke-width="1.5"/>
<line x1="112" y1="92" x2="112" y2="242" stroke="#2f3542" stroke-width="1.5"/>
<polyline points="112.0,225.5 115.6,227.5 119.3,227.5 122.9,227.5 126.6,227.5 130.2,227.5 133.9,227.5 137.5,227.5 141.2,227.5 144.8,227.5 148.4,227.5 152.1,227.5 155.7,225.5 159.4,225.5 163.0,225.5 166.7,225.5 170.3,225.5 174.0,225.5 177.6,223.6 181.2,223.6 184.9,223.6 188.5,223.6 192.2,223.6 195.8,223.6 199.5,223.6 203.1,223.6 206.8,221.6 210.4,221.6 214.0,221.6 217.7,223.6 221.3,223.6 225.0,223.6 228.6,223.6 232.3,223.6 235.9,223.6 239.6,223.6 243.2,225.5 246.8,225.5 250.5,225.5 254.1,225.5 257.8,225.5 261.4,225.5 265.1,227.5 268.7,227.5 272.4,227.5 276.0,227.5 279.6,227.5 283.3,227.5 286.9,227.5 290.6,227.5 294.2,227.5 297.9,227.5 301.5,227.5 305.2,225.5 308.8,225.5 312.4,225.5 316.1,225.5 319.7,225.5 323.4,225.5 327.0,223.6 330.7,223.6 334.3,223.6 338.0,223.6 341.6,223.6 345.2,223.6 348.9,223.6 352.5,223.6 356.2,221.6 359.8,221.6 363.5,221.6 367.1,223.6 370.8,223.6 374.4,223.6 378.0,223.6 381.7,223.6 385.3,223.6 389.0,223.6 392.6,223.6 396.3,225.5 399.9,225.5 403.6,225.5 407.2,225.5 410.8,225.5 414.5,225.5 418.1,227.5 421.8,227.5 425.4,227.5 429.1,227.5 432.7,227.5 436.4,227.5 440.0,227.5 443.6,227.5 447.3,227.5 450.9,227.5 454.6,225.5 458.2,225.5 461.9,225.5 465.5,225.5 469.2,225.5 472.8,225.5 476.4,223.6 480.1,223.6 483.7,223.6 487.4,223.6 491.0,223.6 494.7,223.6 498.3,223.6 502.0,223.6 505.6,221.6 509.2,221.6 512.9,221.6 516.5,223.6 520.2,223.6 523.8,223.6 527.5,223.6 531.1,223.6 534.8,223.6 538.4,223.6 542.0,223.6 545.7,225.5 549.3,225.5 553.0,225.5 556.6,225.5 560.3,225.5 563.9,225.5 567.6,227.5 571.2,227.5 574.8,227.5 578.5,227.5 582.1,227.5 585.8,227.5 589.4,227.5 593.1,227.5 596.7,227.5 600.4,227.5 604.0,225.5 607.6,225.5 611.3,225.5 614.9,225.5 618.6,225.5 622.2,225.5 625.9,223.6 629.5,223.6 633.2,223.6 636.8,223.6 640.4,223.6 644.1,223.6 647.7,223.6 651.4,223.6 655.0,221.6 658.7,221.6 662.3,221.6 666.0,223.6 669.6,223.6 673.2,223.6 676.9,223.6 680.5,223.6 684.2,223.6 687.8,223.6 691.5,223.6 695.1,225.5 698.8,225.5 702.4,225.5 706.0,225.5 709.7,225.5 713.3,225.5 717.0,227.5 720.6,227.5 724.3,227.5 727.9,227.5 731.6,227.5 735.2,227.5 738.8,227.5 742.5,227.5 746.1,227.5 749.8,227.5 753.4,225.5 757.1,225.5 760.7,225.5 764.4,225.5 768.0,225.5 771.6,225.5 775.3,223.6 778.9,223.6 782.6,223.6 786.2,223.6 789.9,223.6 793.5,223.6 797.2,223.6 800.8,223.6 804.4,221.6 808.1,221.6 811.7,221.6 815.4,223.6 819.0,223.6 822.7,223.6 826.3,223.6 830.0,223.6 833.6,223.6 837.2,223.6 840.9,223.6 844.5,225.5 848.2,225.5 851.8,225.5 855.5,225.5 859.1,225.5 862.8,225.5 866.4,227.5 870.0,227.5 873.7,227.5 877.3,227.5 881.0,227.5 884.6,227.5 888.3,227.5 891.9,227.5 895.6,227.5 899.2,227.5 902.8,225.5 906.5,225.5 910.1,225.5 913.8,225.5 917.4,225.5 921.1,225.5 924.7,223.6 928.4,223.6 932.0,223.6" fill="none" stroke="#1b6b57" stroke-width="2.6" stroke-linejoin="round" stroke-linecap="round"/>
<text x="48" y="167.0" transform="rotate(-90 48 167.0)" text-anchor="middle" font-size="12" fill="#626b7a">m/s</text>
<text x="112" y="310" font-size="16" font-weight="700" fill="#20242c">Wind direction</text>
<rect x="112" y="324" width="820" height="150" fill="#ffffff" stroke="#d9dde5"/>
<rect x="112" y="439.3" width="820" height="20.2" fill="#f3b0b0" opacity="0.32"/>
<rect x="112" y="392.3" width="820" height="13.4" fill="#f3b0b0" opacity="0.32"/>
<rect x="112" y="338.5" width="820" height="20.2" fill="#f3b0b0" opacity="0.32"/>
<line x1="112" y1="425.9" x2="932" y2="425.9" stroke="#d9dde5" stroke-width="1"/>
<text x="102" y="429.9" text-anchor="end" font-size="12" fill="#626b7a">250</text>
<line x1="112" y1="358.7" x2="932" y2="358.7" stroke="#d9dde5" stroke-width="1"/>
<text x="102" y="362.7" text-anchor="end" font-size="12" fill="#626b7a">300</text>
<line x1="112.0" y1="324" x2="112.0" y2="474" stroke="#d9dde5" stroke-width="1"/>
<text x="112.0" y="494" text-anchor="middle" font-size="12" fill="#626b7a">0</text>
<line x1="276.0" y1="324" x2="276.0" y2="474" stroke="#d9dde5" stroke-width="1"/>
<text x="276.0" y="494" text-anchor="middle" font-size="12" fill="#626b7a">3</text>
<line x1="440.0" y1="324" x2="440.0" y2="474" stroke="#d9dde5" stroke-width="1"/>
<text x="440.0" y="494" text-anchor="middle" font-size="12" fill="#626b7a">6</text>
<line x1="604.0" y1="324" x2="604.0" y2="474" stroke="#d9dde5" stroke-width="1"/>
<text x="604.0" y="494" text-anchor="middle" font-size="12" fill="#626b7a">9</text>
<line x1="768.0" y1="324" x2="768.0" y2="474" stroke="#d9dde5" stroke-width="1"/>
<text x="768.0" y="494" text-anchor="middle" font-size="12" fill="#626b7a">12</text>
<line x1="932.0" y1="324" x2="932.0" y2="474" stroke="#d9dde5" stroke-width="1"/>
<text x="932.0" y="494" text-anchor="middle" font-size="12" fill="#626b7a">15</text>
<line x1="112" y1="474" x2="932" y2="474" stroke="#2f3542" stroke-width="1.5"/>
<line x1="112" y1="324" x2="112" y2="474" stroke="#2f3542" stroke-width="1.5"/>
<polyline points="112.0,350.3 115.6,349.8 119.3,349.1 122.9,348.3 126.6,347.5 130.2,346.7 133.9,345.9 137.5,345.2 141.2,344.7 144.8,344.3 148.4,344.2 152.1,344.0 155.7,344.2 159.4,344.6 163.0,345.1 166.7,345.8 170.3,346.4 174.0,347.3 177.6,348.1 181.2,348.9 184.9,349.5 188.5,350.2 192.2,350.6 195.8,350.9 199.5,350.9 203.1,350.9 206.8,350.5 210.4,350.1 214.0,349.4 217.7,348.7 221.3,347.9 225.0,347.1 228.6,346.3 232.3,345.6 235.9,345.0 239.6,344.6 243.2,344.2 246.8,344.0 250.5,344.2 254.1,344.3 257.8,344.8 261.4,345.4 265.1,346.0 268.7,346.8 272.4,347.7 276.0,348.5 279.6,349.1 283.3,349.8 286.9,350.3 290.6,350.7 294.2,350.9 297.9,350.9 301.5,350.7 305.2,350.3 308.8,349.8 312.4,349.1 316.1,348.3 319.7,347.5 323.4,346.7 327.0,346.0 330.7,345.4 334.3,344.7 338.0,344.3 341.6,344.2 345.2,344.0 348.9,344.2 352.5,344.6 356.2,345.0 359.8,345.6 363.5,346.4 367.1,347.3 370.8,348.1 374.4,348.7 378.0,349.5 381.7,350.1 385.3,350.6 389.0,350.9 392.6,350.9 396.3,350.9 399.9,350.6 403.6,350.1 407.2,349.5 410.8,348.7 414.5,348.1 418.1,347.3 421.8,346.4 425.4,345.6 429.1,345.0 432.7,344.6 436.4,344.2 440.0,344.0 443.6,344.2 447.3,344.3 450.9,344.7 454.6,345.4 458.2,346.0 461.9,346.7 465.5,347.5 469.2,349.1 472.8,350.6 476.4,352.0 480.1,353.2 483.7,354.2 487.4,355.2 491.0,356.0 494.7,356.5 498.3,356.8 502.0,357.1 505.6,357.1 509.2,357.1 512.9,356.9 516.5,356.8 520.2,356.8 523.8,356.8 527.5,356.9 531.1,357.2 534.8,357.7 538.4,358.4 542.0,359.2 545.7,360.3 549.3,361.5 553.0,362.8 556.6,364.2 560.3,365.8 563.9,367.3 567.6,368.8 571.2,370.2 574.8,371.6 578.5,372.8 582.1,373.7 585.8,374.5 589.4,375.2 593.1,375.6 596.7,375.9 600.4,376.0 604.0,376.0 607.6,376.0 611.3,375.9 614.9,375.7 618.6,375.7 622.2,375.9 625.9,376.0 629.5,376.4 633.2,377.0 636.8,377.8 640.4,378.7 644.1,379.8 647.7,381.1 651.4,382.5 655.0,383.9 658.7,385.4 662.3,387.0 666.0,388.5 669.6,389.9 673.2,391.1 676.9,392.3 680.5,393.1 684.2,393.9 687.8,394.4 691.5,394.8 695.1,395.0 698.8,395.1 702.4,395.0 706.0,395.0 709.7,394.8 713.3,394.8 717.0,394.8 720.6,395.0 724.3,395.2 727.9,395.6 731.6,396.3 735.2,397.1 738.8,398.2 742.5,399.4 746.1,400.7 749.8,402.1 753.4,403.4 757.1,404.2 760.7,405.0 764.4,405.9 768.0,406.4 771.6,406.9 775.3,407.2 778.9,407.3 782.6,407.2 786.2,407.1 789.9,406.5 793.5,406.0 797.2,405.3 800.8,404.5 804.4,403.7 808.1,402.9 811.7,402.1 815.4,401.6 819.0,401.0 822.7,400.6 826.3,400.5 830.0,400.5 833.6,400.7 837.2,401.0 840.9,401.6 844.5,402.2 848.2,403.0 851.8,403.8 855.5,404.6 859.1,405.5 862.8,406.1 866.4,406.7 870.0,407.1 873.7,407.3 877.3,407.3 881.0,407.2 884.6,406.8 888.3,406.3 891.9,405.7 895.6,404.9 899.2,404.1 902.8,403.3 906.5,402.5 910.1,401.8 913.8,401.3 917.4,400.7 921.1,400.5 924.7,400.5 928.4,400.6 932.0,400.9" fill="none" stroke="#5a4fcf" stroke-width="2.6" stroke-linejoin="round" stroke-linecap="round"/>
<text x="48" y="399.0" transform="rotate(-90 48 399.0)" text-anchor="middle" font-size="12" fill="#626b7a">deg</text>
<rect x="752" y="292" width="18" height="10" fill="#f3b0b0" opacity="0.45"/>
<text x="778" y="302" font-size="12" fill="#626b7a">wake-overlap directions</text>
<text x="522.0" y="514" text-anchor="middle" font-size="13" fill="#626b7a">Time (min)</text>
</svg>