<svg xmlns="http://www.w3.org/2000/svg" width="980" height="540" viewBox="0 0 980 540">
<style>text{font-family:Arial, Helvetica, sans-serif}</style>
<rect width="980" height="540" fill="#f7f8fb"/>
<text x="112" y="42" font-size="22" font-weight="700" fill="#20242c">Scenario 09</text>
<text x="112" y="78" font-size="16" font-weight="700" fill="#20242c">Wind speed</text>
<rect x="112" y="92" width="820" height="150" fill="#ffffff" stroke="#d9dde5"/>
<line x1="112" y1="197.2" x2="932" y2="197.2" stroke="#d9dde5" stroke-width="1"/>
<text x="102" y="201.2" text-anchor="end" font-size="12" fill="#626b7a">11.0</text>
<line x1="112" y1="136.8" x2="932" y2="136.8" stroke="#d9dde5" stroke-width="1"/>
<text x="102" y="140.8" text-anchor="end" font-size="12" fill="#626b7a">11.5</text>
<line x1="112.0" y1="92" x2="112.0" y2="242" stroke="#d9dde5" stroke-width="1"/>
<line x1="276.0" y1="92" x2="276.0" y2="242" stroke="#d9dde5" stroke-width="1"/>
<line x1="440.0" y1="92" x2="440.0" y2="242" stroke="#d9dde5" stroke-width="1"/>
<line x1="604.0" y1="92" x2="604.0" y2="242" stroke="#d9dde5" stroke-width="1"/>
<line x1="768.0" y1="92" x2="768.0" y2="242" stroke="#d9dde5" stroke-width="1"/>
<line x1="932.0" y1="92" x2="932.0" y2="242" stroke="#d9dde5" stroke-width="1"/>
<line x1="112" y1="148.9" x2="932" y2="148.9" stroke="#b93636" stroke-width="2" stroke-dasharray="7 5"/>
<text x="924" y="141.9" text-anchor="end" font-size="12" fill="#922828">rated 11.4 m/s</text>
<line x1="112" y1="242" x2="932" y2="242" stroke="#2f3542" stroke-width="1.5"/>
<line x1="112" y1="92" x2="112" y2="242" stroke="#2f3542" stroke-width="1.5"/>
<polyline points="112.0,136.8 115.6,136.8 119.3,124.7 122.9,124.7 126.6,124.7 130.2,124.7 133.9,136.8 137.5,136.8 141.2,148.9 144.8,161.0 148.4,161.0 152.1,173.0 155.7,185.1 159.4,197.2 163.0,197.2 166.7,209.3 170.3,209.3 174.0,209.3 177.6,209.3 181.2,197.2 184.9,197.2 188.5,185.1 192.2,185.1 195.8,173.0 199.5,161.0 203.1,148.9 206.8,148.9 210.4,136.8 214.0,136.8 217.7,124.7 221.3,124.7 225.0,124.7 228.6,124.7 232.3,136.8 235.9,136.8 239.6,148.9 243.2,161.0 246.8,161.0 250.5,173.0 254.1,185.1 257.8,197.2 261.4,197.2 265.1,209.3 268.7,209.3 272.4,209.3 276.0,209.3 279.6,197.2 283.3,197.2 286.9,185.1 290.6,185.1 294.2,173.0 297.9,161.0 301.5,148.9 305.2,148.9 308.8,136.8 312.4,136.8 316.1,124.7 319.7,124.7 323.4,124.7 327.0,124.7 330.7,136.8 334.3,136.8 338.0,148.9 341.6,161.0 345.2,161.0 348.9,173.0 352.5,185.1 356.2,197.2 359.8,197.2 363.5,209.3 367.1,209.3 370.8,209.3 374.4,209.3 378.0,197.2 381.7,197.2 385.3,185.1 389.0,185.1 392.6,173.0 396.3,161.0 399.9,148.9 403.6,148.9 407.2,136.8 410.8,136.8 414.5,124.7 418.1,124.7 421.8,124.7 425.4,124.7 429.1,136.8 432.7,136.8 436.4,148.9 440.0,161.0 443.6,161.0 447.3,173.0 450.9,185.1 454.6,197.2 458.2,197.2 461.9,209.3 465.5,209.3 469.2,209.3 472.8,209.3 476.4,197.2 480.1,197.2 483.7,185.1 487.4,185.1 491.0,173.0 494.7,161.0 498.3,148.9 502.0,148.9 505.6,136.8 509.2,136.8 512.9,124.7 516.5,124.7 520.2,124.7 523.8,124.7 527.5,136.8 531.1,136.8 534.8,148.9 538.4,161.0 542.0,161.0 545.7,173.0 549.3,185.1 553.0,197.2 556.6,197.2 560.3,209.3 563.9,209.3 567.6,209.3 571.2,209.3 574.8,197.2 578.5,197.2 582.1,185.1 585.8,185.1 589.4,173.0 593.1,161.0 596.7,148.9 600.4,148.9 604.0,136.8 607.6,136.8 611.3,124.7 614.9,124.7 618.6,124.7 622.2,124.7 625.9,136.8 629.5,136.8 633.2,148.9 636.8,161.0 640.4,161.0 644.1,173.0 647.7,185.1 651.4,197.2 655.0,197.2 658.7,209.3 662.3,209.3 666.0,209.3 669.6,209.3 673.2,197.2 676.9,197.2 680.5,185.1 684.2,185.1 687.8,173.0 691.5,161.0 695.1,148.9 698.8,148.9 702.4,136.8 706.0,136.8 709.7,124.7 713.3,124.7 717.0,124.7 720.6,124.7 724.3,136.8 727.9,136.8 731.6,148.9 735.2,161.0 738.8,161.0 742.5,173.0 746.1,185.1 749.8,197.2 753.4,197.2 757.1,209.3 760.7,209.3 764.4,209.3 768.0,209.3 771.6,197.2 775.3,197.2 778.9,185.1 782.6,185.1 786.2,173.0 789.9,161.0 793.5,148.9 797.2,148.9 800.8,136.8 804.4,136.8 808.1,124.7 811.7,124.7 815.4,124.7 819.0,124.7 822.7,136.8 826.3,136.8 830.0,148.9 833.6,161.0 837.2,161.0 840.9,173.0 844.5,185.1 848.2,197.2 851.8,197.2 855.5,209.3 859.1,209.3 862.8,209.3 866.4,209.3 870.0,197.2 873.7,197.2 877.3,185.1 881.0,185.1 884.6,173.0 888.3,161.0 891.9,148.9 895.6,148.9 899.2,136.8 902.8,136.8 906.5,124.7 910.1,124.7 913.8,124.7 917.4,124.7 921.1,136.8 924.7,136.8 928.4,148.9 932.0,161.0" fill="none" stroke="#1b6b57" stroke-width="2.6" stroke-linejoin="round" stroke-linecap="round"/>
<text x="48" y="167.0" transform="rotate(-90 48 167.0)" text-anchor="middle" font-size="12" fill="#626b7a">m/s</text>
<text x="112" y="310" font-size="16" font-weight="700" fill="#20242c">Wind direction</text>
<rect x="112" y="324" width="820" height="150" fill="#ffffff" stroke="#d9dde5"/>
<rect x="112" y="439.3" width="820" height="20.2" fill="#f3b0b0" opacity="0.32"/>
<rect x="112" y="392.3" width="820" height="13.4" fill="#f3b0b0" opacity="0.32"/>
<rect x="112" y="338.5" width="820" height="20.2" fill="#f3b0b0" opacity="0.32"/>
<line x1="112" y1="425.9" x2="932" y2="425.9" stroke="#d9dde5" stroke-width="1"/>
<text x="102" y="429.9" text-anchor="end" font-size="12" fill="#626b7a">250</text>
<line x1="112" y1="358.7" x2="932" y2="358.7" stroke="#d9dde5" stroke-width="1"/>
<text x="102" y="362.7" text-anchor="end" font-size="12" fill="#626b7a">300</text>
<line x1="112.0" y1="324" x2="112.0" y2="474" stroke="#d9dde5" stroke-width="1"/>
<text x="112.0" y="494" text-anchor="middle" font-size="12" fill="#626b7a">0</text>
<line x1="276.0" y1="324" x2="276.0" y2="474" stroke="#d9dde5" stroke-width="1"/>
<text x="276.0" y="494" text-anchor="middle" font-size="12" fill="#626b7a">3</text>
<line x1="440.0" y1="324" x2="440.0" y2="474" stroke="#d9dde5" stroke-width="1"/>
<text x="440.0" y="494" text-anchor="middle" font-size="12" fill="#626b7a">6</text>
<line x1="604.0" y1="324" x2="604.0" y2="474" stroke="#d9dde5" stroke-width="1"/>
<text x="604.0" y="494" text-anchor="middle" font-size="12" fill="#626b7a">9</text>
<line x1="768.0" y1="324" x2="768.0" y2="474" stroke="#d9dde5" stroke-width="1"/>
<text x="768.0" y="494" text-anchor="middle" font-size="12" fill="#626b7a">12</text>
<line x1="932.0" y1="324" x2="932.0" y2="474" stroke="#d9dde5" stroke-width="1"/>
<text x="932.0" y="494" text-anchor="middle" font-size="12" fill="#626b7a">15</text>
<line x1="112" y1="474" x2="932" y2="474" stroke="#2f3542" stroke-width="1.5"/>
<line x1="112" y1="324" x2="112" y2="474" stroke="#2f3542" stroke-width="1.5"/>
<polyline points="112.0,436.8 115.6,436.8 119.3,437.3 122.9,438.4 126.6,439.6 130.2,441.1 133.9,442.5 137.5,443.9 141.2,444.8 144.8,445.5 148.4,445.5 152.1,445.1 155.7,444.3 159.4,443.1 163.0,441.6 166.7,440.1 170.3,438.8 174.0,437.7 177.6,436.9 181.2,436.8 184.9,437.0 188.5,437.7 192.2,438.9 195.8,440.3 199.5,441.7 203.1,443.2 206.8,444.3 210.4,445.2 214.0,445.5 217.7,445.4 221.3,444.8 225.0,443.8 228.6,442.4 232.3,440.9 235.9,439.5 239.6,438.2 243.2,437.3 246.8,436.8 250.5,436.8 254.1,437.3 257.8,438.1 261.4,439.5 265.1,440.9 268.7,442.4 272.4,443.8 276.0,444.7 279.6,445.4 283.3,445.5 286.9,445.2 290.6,444.4 294.2,443.2 297.9,441.9 301.5,440.4 305.2,438.9 308.8,437.8 312.4,437.0 316.1,436.8 319.7,436.9 323.4,437.6 327.0,438.7 330.7,439.5 334.3,440.0 338.0,440.7 341.6,441.1 345.2,441.2 348.9,440.8 352.5,439.9 356.2,438.5 359.8,436.8 363.5,434.6 367.1,432.3 370.8,430.0 374.4,427.9 378.0,426.0 381.7,424.5 385.3,423.6 389.0,423.2 392.6,423.3 396.3,423.6 399.9,424.3 403.6,424.9 407.2,425.5 410.8,425.7 414.5,425.6 418.1,425.1 421.8,423.9 425.4,422.4 429.1,420.4 432.7,418.2 436.4,415.9 440.0,413.7 443.6,411.6 447.3,409.9 450.9,408.7 454.6,408.0 458.2,407.7 461.9,408.0 465.5,408.4 469.2,409.1 472.8,409.8 476.4,410.2 480.1,410.3 483.7,410.0 487.4,409.2 491.0,407.9 494.7,406.1 498.3,404.1 502.0,401.8 505.6,399.9 509.2,398.6 512.9,397.5 516.5,396.8 520.2,396.7 523.8,397.0 527.5,397.8 531.1,399.0 534.8,400.3 538.4,401.8 542.0,403.3 545.7,404.4 549.3,405.2 553.0,405.5 556.6,405.3 560.3,404.6 563.9,403.6 567.6,402.2 571.2,400.7 574.8,399.3 578.5,398.1 582.1,397.1 585.8,396.7 589.4,396.7 593.1,397.3 596.7,398.2 600.4,399.5 604.0,401.0 607.6,402.5 611.3,403.8 614.9,404.8 618.6,405.3 622.2,405.5 625.9,405.0 629.5,404.2 633.2,403.0 636.8,401.6 640.4,400.1 644.1,398.7 647.7,397.7 651.4,396.8 655.0,396.7 658.7,396.8 662.3,397.7 666.0,398.7 669.6,400.1 673.2,401.6 676.9,403.0 680.5,404.2 684.2,405.0 687.8,405.5 691.5,405.3 695.1,404.8 698.8,403.8 702.4,402.5 706.0,401.0 709.7,399.5 713.3,398.2 717.0,397.3 720.6,396.7 724.3,396.7 727.9,397.1 731.6,398.1 735.2,399.3 738.8,400.7 742.5,402.2 746.1,403.6 749.8,404.6 753.4,405.3 757.1,405.5 760.7,405.2 764.4,404.4 768.0,403.3 771.6,401.8 775.3,400.3 778.9,399.0 782.6,397.8 786.2,397.0 789.9,396.7 793.5,396.8 797.2,397.5 800.8,398.6 804.4,399.9 808.1,401.4 811.7,402.8 815.4,404.1 819.0,405.0 822.7,405.5 826.3,405.5 830.0,404.9 833.6,404.0 837.2,402.6 840.9,401.3 844.5,399.8 848.2,398.5 851.8,397.4 855.5,396.8 859.1,396.7 862.8,397.1 866.4,397.9 870.0,399.1 873.7,400.5 877.3,402.0 881.0,403.4 884.6,404.5 888.3,405.2 891.9,405.5 895.6,405.3 899.2,404.5 902.8,403.4 906.5,402.1 910.1,400.6 913.8,399.1 917.4,397.9 921.1,397.1 924.7,396.7 928.4,396.7 932.0,397.4" fill="none" stroke="#5a4fcf" stroke-width="2.6" stroke-linejoin="round" stroke-linecap="round"/>
<text x="48" y="399.0" transform="rotate(-90 48 399.0)" text-anchor="middle" font-size="12" fill="#626b7a">deg</text>
<rect x="752" y="292" width="18" height="10" fill="#f3b0b0" opacity="0.45"/>
<text x="778" y="302" font-size="12" fill="#626b7a">wake-overlap directions</text>
<text x="522.0" y="514" text-anchor="middle" font-size="13" fill="#626b7a">Time (min)</text>
</svg>