<svg xmlns="http://www.w3.org/2000/svg" width="980" height="540" viewBox="0 0 980 540">
<style>text{font-family:Arial, Helvetica, sans-serif}</style>
<rect width="980" height="540" fill="#f7f8fb"/>
<text x="112" y="42" font-size="22" font-weight="700" fill="#20242c">Scenario 10</text>
<text x="112" y="78" font-size="16" font-weight="700" fill="#20242c">Wind speed</text>
<rect x="112" y="92" width="820" height="150" fill="#ffffff" stroke="#d9dde5"/>
<line x1="112" y1="238.0" x2="932" y2="238.0" stroke="#d9dde5" stroke-width="1"/>
<text x="102" y="242.0" text-anchor="end" font-size="12" fill="#626b7a">10.0</text>
<line x1="112" y1="202.9" x2="932" y2="202.9" stroke="#d9dde5" stroke-width="1"/>
<text x="102" y="206.9" text-anchor="end" font-size="12" fill="#626b7a">12.0</text>
<line x1="112" y1="167.9" x2="932" y2="167.9" stroke="#d9dde5" stroke-width="1"/>
<text x="102" y="171.9" text-anchor="end" font-size="12" fill="#626b7a">14.0</text>
<line x1="112" y1="132.8" x2="932" y2="132.8" stroke="#d9dde5" stroke-width="1"/>
<text x="102" y="136.8" text-anchor="end" font-size="12" fill="#626b7a">16.0</text>
<line x1="112" y1="97.8" x2="932" y2="97.8" stroke="#d9dde5" stroke-width="1"/>
<text x="102" y="101.8" text-anchor="end" font-size="12" fill="#626b7a">18.0</text>
<line x1="112.0" y1="92" x2="112.0" y2="242" stroke="#d9dde5" stroke-width="1"/>
<line x1="276.0" y1="92" x2="276.0" y2="242" stroke="#d9dde5" stroke-width="1"/>
<line x1="440.0" y1="92" x2="440.0" y2="242" stroke="#d9dde5" stroke-width="1"/>
<line x1="604.0" y1="92" x2="604.0" y2="242" stroke="#d9dde5" stroke-width="1"/>
<line x1="768.0" y1="92" x2="768.0" y2="242" stroke="#d9dde5" stroke-width="1"/>
<line x1="932.0" y1="92" x2="932.0" y2="242" stroke="#d9dde5" stroke-width="1"/>
<line x1="112" y1="213.5" x2="932" y2="213.5" stroke="#b93636" stroke-width="2" stroke-dasharray="7 5"/>
<text x="924" y="206.5" text-anchor="end" font-size="12" fill="#922828">rated 11.4 m/s</text>
<line x1="112" y1="242" x2="932" y2="242" stroke="#2f3542" stroke-width="1.5"/>
<line x1="112" y1="92" x2="112" y2="242" stroke="#2f3542" stroke-width="1.5"/>
<polyline points="112.0,108.3 115.6,108.3 119.3,110.0 122.9,111.8 126.6,113.5 130.2,115.3 133.9,117.0 137.5,118.8 141.2,120.5 144.8,122.3 148.4,124.0 152.1,124.0 155.7,125.8 159.4,127.6 163.0,127.6 166.7,127.6 170.3,127.6 174.0,127.6 177.6,127.6 181.2,127.6 184.9,125.8 188.5,125.8 192.2,124.0 195.8,122.3 199.5,120.5 203.1,118.8 206.8,117.0 210.4,115.3 214.0,113.5 217.7,111.8 221.3,110.0 225.0,110.0 228.6,108.3 232.3,106.5 235.9,106.5 239.6,106.5 243.2,106.5 246.8,106.5 250.5,106.5 254.1,106.5 257.8,108.3 261.4,108.3 265.1,110.0 268.7,111.8 272.4,113.5 276.0,113.5 279.6,115.3 283.3,117.0 286.9,118.8 290.6,120.5 294.2,122.3 297.9,124.0 301.5,125.8 305.2,125.8 308.8,127.6 312.4,127.6 316.1,127.6 319.7,127.6 323.4,127.6 327.0,127.6 330.7,125.8 334.3,125.8 338.0,124.0 341.6,122.3 345.2,122.3 348.9,122.3 352.5,122.3 356.2,122.3 359.8,120.5 363.5,120.5 367.1,120.5 370.8,120.5 374.4,120.5 378.0,120.5 381.7,120.5 385.3,122.3 389.0,122.3 392.6,124.0 396.3,125.8 399.9,127.6 403.6,129.3 407.2,131.1 410.8,134.6 414.5,136.3 418.1,139.8 421.8,141.6 425.4,145.1 429.1,148.6 432.7,150.3 436.4,153.9 440.0,157.4 443.6,159.1 447.3,162.6 450.9,164.4 454.6,166.1 458.2,169.6 461.9,171.4 465.5,171.4 469.2,173.1 472.8,173.1 476.4,174.9 480.1,174.9 483.7,174.9 487.4,174.9 491.0,174.9 494.7,174.9 498.3,174.9 502.0,173.1 505.6,173.1 509.2,173.1 512.9,173.1 516.5,171.4 520.2,171.4 523.8,173.1 527.5,173.1 531.1,173.1 534.8,174.9 538.4,174.9 542.0,176.6 545.7,178.4 549.3,180.1 553.0,181.9 556.6,185.4 560.3,187.2 563.9,190.7 567.6,192.4 571.2,195.9 574.8,199.4 578.5,201.2 582.1,204.7 585.8,208.2 589.4,210.0 593.1,213.5 596.7,215.2 600.4,218.7 604.0,220.5 607.6,222.2 611.3,224.0 614.9,224.0 618.6,225.7 622.2,225.7 625.9,225.7 629.5,225.7 633.2,224.0 636.8,222.2 640.4,220.5 644.1,220.5 647.7,218.7 651.4,217.0 655.0,215.2 658.7,213.5 662.3,211.7 666.0,210.0 669.6,208.2 673.2,208.2 676.9,206.4 680.5,206.4 684.2,206.4 687.8,206.4 691.5,206.4 695.1,206.4 698.8,208.2 702.4,208.2 706.0,210.0 709.7,211.7 713.3,213.5 717.0,213.5 720.6,215.2 724.3,217.0 727.9,218.7 731.6,220.5 735.2,222.2 738.8,224.0 742.5,225.7 746.1,225.7 749.8,227.5 753.4,227.5 757.1,227.5 760.7,227.5 764.4,227.5 768.0,227.5 771.6,227.5 775.3,225.7 778.9,224.0 782.6,224.0 786.2,222.2 789.9,220.5 793.5,218.7 797.2,217.0 800.8,215.2 804.4,213.5 808.1,211.7 811.7,210.0 815.4,210.0 819.0,208.2 822.7,206.4 826.3,206.4 830.0,206.4 833.6,206.4 837.2,206.4 840.9,206.4 844.5,206.4 848.2,208.2 851.8,210.0 855.5,210.0 859.1,211.7 862.8,213.5 866.4,215.2 870.0,217.0 873.7,218.7 877.3,220.5 881.0,222.2 884.6,224.0 888.3,225.7 891.9,225.7 895.6,227.5 899.2,227.5 902.8,227.5 906.5,227.5 910.1,227.5 913.8,227.5 917.4,227.5 921.1,225.7 924.7,225.7 928.4,224.0 932.0,222.2" fill="none" stroke="#1b6b57" stroke-width="2.6" stroke-linejoin="round" stroke-linecap="round"/>
<text x="48" y="167.0" transform="rotate(-90 48 167.0)" text-anchor="middle" font-size="12" fill="#626b7a">m/s</text>
<text x="112" y="310" font-size="16" font-weight="700" fill="#20242c">Wind direction</text>
<rect x="112" y="324" width="820" height="150" fill="#ffffff" stroke="#d9dde5"/>
<rect x="112" y="439.3" width="820" height="20.2" fill="#f3b0b0" opacity="0.32"/>
<rect x="112" y="392.3" width="820" height="13.4" fill="#f3b0b0" opacity="0.32"/>
<rect x="112" y="338.5" width="820" height="20.2" fill="#f3b0b0" opacity="0.32"/>
<line x1="112" y1="425.9" x2="932" y2="425.9" stroke="#d9dde5" stroke-width="1"/>
<text x="102" y="429.9" text-anchor="end" font-size="12" fill="#626b7a">250</text>
<line x1="112" y1="358.7" x2="932" y2="358.7" stroke="#d9dde5" stroke-width="1"/>
<text x="102" y="362.7" text-anchor="end" font-size="12" fill="#626b7a">300</text>
<line x1="112.0" y1="324" x2="112.0" y2="474" stroke="#d9dde5" stroke-width="1"/>
<text x="112.0" y="494" text-anchor="middle" font-size="12" fill="#626b7a">0</text>
<line x1="276.0" y1="324" x2="276.0" y2="474" stroke="#d9dde5" stroke-width="1"/>
<text x="276.0" y="494" text-anchor="middle" font-size="12" fill="#626b7a">3</text>
<line x1="440.0" y1="324" x2="440.0" y2="474" stroke="#d9dde5" stroke-width="1"/>
<text x="440.0" y="494" text-anchor="middle" font-size="12" fill="#626b7a">6</text>
<line x1="604.0" y1="324" x2="604.0" y2="474" stroke="#d9dde5" stroke-width="1"/>
<text x="604.0" y="494" text-anchor="middle" font-size="12" fill="#626b7a">9</text>
<line x1="768.0" y1="324" x2="768.0" y2="474" stroke="#d9dde5" stroke-width="1"/>
<text x="768.0" y="494" text-anchor="middle" font-size="12" fill="#626b7a">12</text>
<line x1="932.0" y1="324" x2="932.0" y2="474" stroke="#d9dde5" stroke-width="1"/>
<text x="932.0" y="494" text-anchor="middle" font-size="12" fill="#626b7a">15</text>
<line x1="112" y1="474" x2="932" y2="474" stroke="#2f3542" stroke-width="1.5"/>
<line x1="112" y1="324" x2="112" y2="474" stroke="#2f3542" stroke-width="1.5"/>
<polyline points="112.0,407.3 115.6,408.1 119.3,409.1 122.9,410.0 126.6,410.8 130.2,411.6 133.9,412.4 137.5,413.2 141.2,413.8 144.8,414.3 148.4,414.9 152.1,415.1 155.7,415.3 159.4,415.3 163.0,415.3 166.7,415.0 170.3,414.6 174.0,414.2 177.6,413.7 181.2,413.0 184.9,412.2 188.5,411.4 192.2,410.6 195.8,409.6 199.5,408.7 203.1,407.9 206.8,406.9 210.4,406.1 214.0,405.5 217.7,404.8 221.3,404.2 225.0,403.8 228.6,403.4 232.3,403.3 235.9,403.2 239.6,403.3 243.2,403.6 246.8,403.8 250.5,404.2 254.1,404.9 257.8,405.5 261.4,406.3 265.1,407.1 268.7,407.9 272.4,408.8 276.0,409.8 279.6,410.6 283.3,411.5 286.9,412.3 290.6,413.0 294.2,413.7 297.9,414.2 301.5,414.7 305.2,415.0 308.8,415.3 312.4,415.3 316.1,415.3 319.7,415.1 323.4,414.7 327.0,414.3 330.7,413.8 334.3,413.1 338.0,412.4 341.6,411.6 345.2,410.7 348.9,409.9 352.5,408.9 356.2,408.0 359.8,407.2 363.5,406.4 367.1,405.6 370.8,404.9 374.4,404.4 378.0,404.0 381.7,403.6 385.3,403.3 389.0,403.2 392.6,403.3 396.3,403.4 399.9,403.7 403.6,404.1 407.2,404.6 410.8,405.3 414.5,406.0 418.1,406.8 421.8,407.7 425.4,408.5 429.1,409.5 432.7,410.3 436.4,411.2 440.0,412.0 443.6,412.8 447.3,413.5 450.9,414.1 454.6,414.6 458.2,415.0 461.9,415.1 465.5,415.3 469.2,415.3 472.8,415.1 476.4,414.9 480.1,414.5 483.7,413.9 487.4,413.4 491.0,412.6 494.7,411.8 498.3,411.0 502.0,410.2 505.6,409.2 509.2,408.3 512.9,407.5 516.5,406.7 520.2,405.9 523.8,405.2 527.5,404.5 531.1,404.0 534.8,403.7 538.4,403.4 542.0,403.3 545.7,403.3 549.3,403.4 553.0,403.7 556.6,404.0 560.3,404.5 563.9,405.2 567.6,405.9 571.2,406.7 574.8,407.5 578.5,408.3 582.1,409.2 585.8,410.2 589.4,411.0 593.1,411.8 596.7,412.6 600.4,413.2 604.0,413.9 607.6,414.5 611.3,414.9 614.9,415.1 618.6,415.3 622.2,415.3 625.9,415.3 629.5,415.0 633.2,414.6 636.8,414.1 640.4,413.5 644.1,412.8 647.7,412.0 651.4,411.2 655.0,410.4 658.7,409.5 662.3,408.5 666.0,407.7 669.6,406.8 673.2,406.0 676.9,405.3 680.5,404.6 684.2,404.1 687.8,403.7 691.5,403.4 695.1,403.3 698.8,403.2 702.4,403.3 706.0,403.6 709.7,403.8 713.3,404.4 717.0,404.9 720.6,405.6 724.3,406.4 727.9,407.2 731.6,408.0 735.2,408.9 738.8,409.9 742.5,410.7 746.1,411.6 749.8,412.4 753.4,413.1 757.1,413.8 760.7,414.3 764.4,414.7 768.0,415.1 771.6,415.3 775.3,415.3 778.9,415.3 782.6,415.0 786.2,414.7 789.9,414.2 793.5,413.7 797.2,413.0 800.8,412.3 804.4,411.5 808.1,410.6 811.7,409.8 815.4,408.8 819.0,407.9 822.7,407.1 826.3,406.3 830.0,405.6 833.6,404.9 837.2,404.2 840.9,403.8 844.5,403.6 848.2,403.3 851.8,403.2 855.5,403.3 859.1,403.4 862.8,403.8 866.4,404.2 870.0,404.8 873.7,405.5 877.3,406.1 881.0,406.9 884.6,407.9 888.3,408.7 891.9,409.6 895.6,410.4 899.2,411.4 902.8,412.2 906.5,413.0 910.1,413.7 913.8,414.2 917.4,414.6 921.1,415.0 924.7,415.3 928.4,415.3 932.0,415.3" fill="none" stroke="#5a4fcf" stroke-width="2.6" stroke-linejoin="round" stroke-linecap="round"/>
<text x="48" y="399.0" transform="rotate(-90 48 399.0)" text-anchor="middle" font-size="12" fill="#626b7a">deg</text>
<rect x="752" y="292" width="18" height="10" fill="#f3b0b0" opacity="0.45"/>
<text x="778" y="302" font-size="12" fill="#626b7a">wake-overlap directions</text>
<text x="522.0" y="514" text-anchor="middle" font-size="13" fill="#626b7a">Time (min)</text>
</svg>