<svg xmlns="http://www.w3.org/2000/svg" width="980" height="540" viewBox="0 0 980 540">
<style>text{font-family:Arial, Helvetica, sans-serif}</style>
<rect width="980" height="540" fill="#f7f8fb"/>
<text x="112" y="42" font-size="22" font-weight="700" fill="#20242c">Scenario 04</text>
<text x="112" y="78" font-size="16" font-weight="700" fill="#20242c">Wind speed</text>
<rect x="112" y="92" width="820" height="150" fill="#ffffff" stroke="#d9dde5"/>
<line x1="112" y1="202.5" x2="932" y2="202.5" stroke="#d9dde5" stroke-width="1"/>
<text x="102" y="206.5" text-anchor="end" font-size="12" fill="#626b7a">12.0</text>
<line x1="112" y1="160.7" x2="932" y2="160.7" stroke="#d9dde5" stroke-width="1"/>
<text x="102" y="164.7" text-anchor="end" font-size="12" fill="#626b7a">13.0</text>
<line x1="112" y1="119.0" x2="932" y2="119.0" stroke="#d9dde5" stroke-width="1"/>
<text x="102" y="123.0" text-anchor="end" font-size="12" fill="#626b7a">14.0</text>
<line x1="112.0" y1="92" x2="112.0" y2="242" stroke="#d9dde5" stroke-width="1"/>
<line x1="276.0" y1="92" x2="276.0" y2="242" stroke="#d9dde5" stroke-width="1"/>
<line x1="440.0" y1="92" x2="440.0" y2="242" stroke="#d9dde5" stroke-width="1"/>
<line x1="604.0" y1="92" x2="604.0" y2="242" stroke="#d9dde5" stroke-width="1"/>
<line x1="768.0" y1="92" x2="768.0" y2="242" stroke="#d9dde5" stroke-width="1"/>
<line x1="932.0" y1="92" x2="932.0" y2="242" stroke="#d9dde5" stroke-width="1"/>
<line x1="112" y1="227.5" x2="932" y2="227.5" stroke="#b93636" stroke-width="2" stroke-dasharray="7 5"/>
<text x="924" y="220.5" text-anchor="end" font-size="12" fill="#922828">rated 11.4 m/s</text>
<line x1="112" y1="242" x2="932" y2="242" stroke="#2f3542" stroke-width="1.5"/>
<line x1="112" y1="92" x2="112" y2="242" stroke="#2f3542" stroke-width="1.5"/>
<polyline points="112.0,148.2 115.6,148.2 119.3,148.2 122.9,144.1 126.6,144.1 130.2,144.1 133.9,139.9 137.5,139.9 141.2,135.7 144.8,135.7 148.4,135.7 152.1,135.7 155.7,135.7 159.4,135.7 163.0,139.9 166.7,139.9 170.3,139.9 174.0,144.1 177.6,144.1 181.2,148.2 184.9,148.2 188.5,148.2 192.2,148.2 195.8,148.2 199.5,148.2 203.1,144.1 206.8,144.1 210.4,139.9 214.0,139.9 217.7,139.9 221.3,135.7 225.0,135.7 228.6,135.7 232.3,135.7 235.9,135.7 239.6,135.7 243.2,139.9 246.8,139.9 250.5,144.1 254.1,144.1 257.8,144.1 261.4,148.2 265.1,148.2 268.7,148.2 272.4,148.2 276.0,148.2 279.6,144.1 283.3,144.1 286.9,144.1 290.6,139.9 294.2,139.9 297.9,135.7 301.5,135.7 305.2,135.7 308.8,135.7 312.4,135.7 316.1,135.7 319.7,139.9 323.4,139.9 327.0,139.9 330.7,144.1 334.3,144.1 338.0,148.2 341.6,148.2 345.2,148.2 348.9,148.2 352.5,148.2 356.2,148.2 359.8,144.1 363.5,144.1 367.1,139.9 370.8,139.9 374.4,139.9 378.0,135.7 381.7,135.7 385.3,135.7 389.0,135.7 392.6,135.7 396.3,135.7 399.9,139.9 403.6,139.9 407.2,144.1 410.8,144.1 414.5,144.1 418.1,148.2 421.8,148.2 425.4,148.2 429.1,148.2 432.7,148.2 436.4,144.1 440.0,144.1 443.6,144.1 447.3,139.9 450.9,139.9 454.6,135.7 458.2,135.7 461.9,135.7 465.5,135.7 469.2,135.7 472.8,135.7 476.4,135.7 480.1,139.9 483.7,139.9 487.4,139.9 491.0,139.9 494.7,139.9 498.3,139.9 502.0,139.9 505.6,139.9 509.2,135.7 512.9,135.7 516.5,131.5 520.2,131.5 523.8,127.4 527.5,123.2 531.1,123.2 534.8,119.0 538.4,119.0 542.0,114.9 545.7,114.9 549.3,114.9 553.0,114.9 556.6,114.9 560.3,114.9 563.9,119.0 567.6,119.0 571.2,119.0 574.8,119.0 578.5,119.0 582.1,119.0 585.8,119.0 589.4,119.0 593.1,114.9 596.7,114.9 600.4,114.9 604.0,110.7 607.6,110.7 611.3,106.5 614.9,106.5 618.6,106.5 622.2,106.5 625.9,106.5 629.5,106.5 633.2,110.7 636.8,110.7 640.4,114.9 644.1,114.9 647.7,114.9 651.4,119.0 655.0,119.0 658.7,119.0 662.3,119.0 666.0,119.0 669.6,119.0 673.2,114.9 676.9,114.9 680.5,110.7 684.2,110.7 687.8,110.7 691.5,106.5 695.1,106.5 698.8,106.5 702.4,106.5 706.0,106.5 709.7,110.7 713.3,110.7 717.0,110.7 720.6,114.9 724.3,114.9 727.9,119.0 731.6,119.0 735.2,119.0 738.8,119.0 742.5,119.0 746.1,119.0 749.8,114.9 753.4,114.9 757.1,114.9 760.7,110.7 764.4,110.7 768.0,106.5 771.6,106.5 775.3,106.5 778.9,106.5 782.6,106.5 786.2,106.5 789.9,110.7 793.5,110.7 797.2,114.9 800.8,114.9 804.4,114.9 808.1,119.0 811.7,119.0 815.4,119.0 819.0,119.0 822.7,119.0 826.3,119.0 830.0,114.9 833.6,114.9 837.2,110.7 840.9,110.7 844.5,110.7 848.2,106.5 851.8,106.5 855.5,106.5 859.1,106.5 862.8,106.5 866.4,110.7 870.0,110.7 873.7,110.7 877.3,114.9 881.0,114.9 884.6,119.0 888.3,119.0 891.9,119.0 895.6,119.0 899.2,119.0 902.8,119.0 906.5,114.9 910.1,114.9 913.8,114.9 917.4,110.7 921.1,110.7 924.7,106.5 928.4,106.5 932.0,106.5" fill="none" stroke="#1b6b57" stroke-width="2.6" stroke-linejoin="round" stroke-linecap="round"/>
<text x="48" y="167.0" transform="rotate(-90 48 167.0)" text-anchor="middle" font-size="12" fill="#626b7a">m/s</text>
<text x="112" y="310" font-size="16" font-weight="700" fill="#20242c">Wind direction</text>
<rect x="112" y="324" width="820" height="150" fill="#ffffff" stroke="#d9dde5"/>
<rect x="112" y="439.3" width="820" height="20.2" fill="#f3b0b0" opacity="0.32"/>
<rect x="112" y="392.3" width="820" height="13.4" fill="#f3b0b0" opacity="0.32"/>
<rect x="112" y="338.5" width="820" height="20.2" fill="#f3b0b0" opacity="0.32"/>
<line x1="112" y1="425.9" x2="932" y2="425.9" stroke="#d9dde5" stroke-width="1"/>
<text x="102" y="429.9" text-anchor="end" font-size="12" fill="#626b7a">250</text>
<line x1="112" y1="358.7" x2="932" y2="358.7" stroke="#d9dde5" stroke-width="1"/>
<text x="102" y="362.7" text-anchor="end" font-size="12" fill="#626b7a">300</text>
<line x1="112.0" y1="324" x2="112.0" y2="474" stroke="#d9dde5" stroke-width="1"/>
<text x="112.0" y="494" text-anchor="middle" font-size="12" fill="#626b7a">0</text>
<line x1="276.0" y1="324" x2="276.0" y2="474" stroke="#d9dde5" stroke-width="1"/>
<text x="276.0" y="494" text-anchor="middle" font-size="12" fill="#626b7a">3</text>
<line x1="440.0" y1="324" x2="440.0" y2="474" stroke="#d9dde5" stroke-width="1"/>
<text x="440.0" y="494" text-anchor="middle" font-size="12" fill="#626b7a">6</text>
<line x1="604.0" y1="324" x2="604.0" y2="474" stroke="#d9dde5" stroke-width="1"/>
<text x="604.0" y="494" text-anchor="middle" font-size="12" fill="#626b7a">9</text>
<line x1="768.0" y1="324" x2="768.0" y2="474" stroke="#d9dde5" stroke-width="1"/>
<text x="768.0" y="494" text-anchor="middle" font-size="12" fill="#626b7a">12</text>
<line x1="932.0" y1="324" x2="932.0" y2="474" stroke="#d9dde5" stroke-width="1"/>
<text x="932.0" y="494" text-anchor="middle" font-size="12" fill="#626b7a">15</text>
<line x1="112" y1="474" x2="932" y2="474" stroke="#2f3542" stroke-width="1.5"/>
<line x1="112" y1="324" x2="112" y2="474" stroke="#2f3542" stroke-width="1.5"/>
<polyline points="112.0,431.1 115.6,432.1 119.3,433.4 122.9,435.2 126.6,437.2 130.2,439.2 133.9,441.3 137.5,443.4 141.2,445.2 144.8,446.8 148.4,447.9 152.1,448.6 155.7,448.9 159.4,448.6 163.0,447.8 166.7,446.6 170.3,445.1 174.0,443.2 177.6,441.2 181.2,439.1 184.9,436.9 188.5,435.0 192.2,433.3 195.8,431.9 199.5,431.0 203.1,430.6 206.8,430.7 210.4,431.3 214.0,432.2 217.7,433.7 221.3,435.4 225.0,437.4 228.6,439.5 232.3,441.6 235.9,443.6 239.6,445.5 243.2,447.0 246.8,448.1 250.5,448.7 254.1,448.9 257.8,448.6 261.4,447.8 265.1,446.4 268.7,444.8 272.4,443.0 276.0,440.9 279.6,438.8 283.3,436.6 286.9,434.8 290.6,433.1 294.2,431.8 297.9,431.0 301.5,430.6 305.2,430.7 308.8,431.3 312.4,432.3 316.1,433.8 319.7,435.6 323.4,437.6 327.0,439.7 330.7,441.9 334.3,443.9 338.0,445.6 341.6,447.1 345.2,448.2 348.9,448.7 352.5,448.9 356.2,448.5 359.8,447.7 363.5,446.3 367.1,444.7 370.8,442.7 374.4,440.7 378.0,438.5 381.7,436.5 385.3,434.6 389.0,433.0 392.6,431.7 396.3,430.9 399.9,430.6 403.6,430.7 407.2,431.4 410.8,432.5 414.5,434.1 418.1,435.8 421.8,437.8 425.4,440.0 429.1,442.1 432.7,444.0 436.4,445.8 440.0,447.3 443.6,448.2 447.3,448.7 450.9,448.9 454.6,448.3 458.2,447.5 461.9,446.2 465.5,444.4 469.2,442.5 472.8,440.4 476.4,438.2 480.1,436.2 483.7,434.3 487.4,433.0 491.0,431.9 494.7,431.3 498.3,431.1 502.0,431.5 505.6,432.3 509.2,433.7 512.9,435.3 516.5,437.3 520.2,439.5 523.8,441.7 527.5,443.9 531.1,446.0 534.8,447.9 538.4,449.4 542.0,450.5 545.7,451.0 549.3,451.2 553.0,450.9 556.6,449.9 560.3,448.7 563.9,447.1 567.6,445.2 571.2,443.4 574.8,441.3 578.5,439.5 582.1,437.7 585.8,436.4 589.4,435.3 593.1,434.8 596.7,434.6 600.4,435.0 604.0,436.0 607.6,437.3 611.3,439.1 614.9,441.1 618.6,443.2 622.2,445.5 625.9,447.7 629.5,449.8 633.2,451.6 636.8,453.0 640.4,454.1 644.1,454.6 647.7,454.6 651.4,454.2 655.0,453.3 658.7,452.1 662.3,450.5 666.0,448.6 669.6,446.4 673.2,444.3 676.9,442.3 680.5,440.5 684.2,439.1 687.8,438.0 691.5,437.3 695.1,437.2 698.8,437.4 702.4,438.2 706.0,439.6 709.7,441.2 713.3,443.1 717.0,445.1 720.6,447.3 724.3,449.4 727.9,451.3 731.6,452.9 735.2,454.2 738.8,455.0 742.5,455.5 746.1,455.3 749.8,454.6 753.4,453.6 757.1,452.1 760.7,450.3 764.4,448.3 768.0,446.2 771.6,444.2 775.3,442.1 778.9,440.3 782.6,438.9 786.2,437.8 789.9,437.3 793.5,437.2 797.2,437.6 800.8,438.4 804.4,439.7 808.1,441.3 811.7,443.4 815.4,445.4 819.0,447.5 822.7,449.5 826.3,451.4 830.0,453.0 833.6,454.4 837.2,455.0 840.9,455.5 844.5,455.2 848.2,454.5 851.8,453.4 855.5,452.0 859.1,450.1 862.8,448.1 866.4,445.9 870.0,443.9 873.7,441.9 877.3,440.1 881.0,438.8 884.6,437.7 888.3,437.2 891.9,437.2 895.6,437.6 899.2,438.5 902.8,439.9 906.5,441.6 910.1,443.5 913.8,445.6 917.4,447.8 921.1,449.8 924.7,451.7 928.4,453.3 932.0,454.4" fill="none" stroke="#5a4fcf" stroke-width="2.6" stroke-linejoin="round" stroke-linecap="round"/>
<text x="48" y="399.0" transform="rotate(-90 48 399.0)" text-anchor="middle" font-size="12" fill="#626b7a">deg</text>
<rect x="752" y="292" width="18" height="10" fill="#f3b0b0" opacity="0.45"/>
<text x="778" y="302" font-size="12" fill="#626b7a">wake-overlap directions</text>
<text x="522.0" y="514" text-anchor="middle" font-size="13" fill="#626b7a">Time (min)</text>
</svg>